<svg width="26" height="17" viewBox="0 0 26 17" fill="none" xmlns="http://www.w3.org/2000/svg">
<path fill-rule="evenodd" clip-rule="evenodd" d="M26 8.5C26 8.24955 25.9022 8.00936 25.728 7.83227C25.5539 7.65518 25.3177 7.55569 25.0715 7.55569H3.1716L9.01566 1.61408C9.10198 1.52628 9.17047 1.42205 9.21719 1.30733C9.26391 1.19262 9.28796 1.06967 9.28796 0.945505C9.28796 0.821339 9.26391 0.69839 9.21719 0.583676C9.17047 0.468962 9.10198 0.36473 9.01566 0.276932C8.92933 0.189133 8.82684 0.119488 8.71405 0.0719723C8.60125 0.0244563 8.48036 0 8.35827 0C8.23618 0 8.11529 0.0244563 8.00249 0.0719723C7.8897 0.119488 7.78721 0.189133 7.70088 0.276932L0.272785 7.83143C0.186316 7.91914 0.117712 8.02335 0.0709035 8.13808C0.0240945 8.2528 0 8.37579 0 8.5C0 8.62421 0.0240945 8.7472 0.0709035 8.86192C0.117712 8.97665 0.186316 9.08085 0.272785 9.16857L7.70088 16.7231C7.78721 16.8109 7.8897 16.8805 8.00249 16.928C8.11529 16.9755 8.23618 17 8.35827 17C8.48036 17 8.60125 16.9755 8.71405 16.928C8.82684 16.8805 8.92933 16.8109 9.01566 16.7231C9.10198 16.6353 9.17047 16.531 9.21719 16.4163C9.26391 16.3016 9.28796 16.1787 9.28796 16.0545C9.28796 15.9303 9.26391 15.8074 9.21719 15.6927C9.17047 15.578 9.10198 15.4737 9.01566 15.3859L3.1716 9.44431H25.0715C25.3177 9.44431 25.5539 9.34482 25.728 9.16773C25.9022 8.99064 26 8.75045 26 8.5Z" fill="#070707" style="fill:#070707;fill:color(display-p3 0.0275 0.0275 0.0275);fill-opacity:1;"/>
</svg>
