<svg width="22" height="22" viewBox="0 0 22 22" fill="none" xmlns="http://www.w3.org/2000/svg">
<path d="M16.3332 2.99996V5.66663M16.3332 5.66663V8.33329M16.3332 5.66663H13.6666M16.3332 5.66663H18.9999M19.7015 20.1273C15.6553 21.6146 10.163 20.0951 6.03847 15.9706C1.91396 11.846 0.394393 6.35375 1.88176 2.30752C2.54311 0.508371 4.80873 0.412516 6.28018 1.64098L7.50976 2.66751C8.52011 3.51101 8.58876 5.03973 7.65809 5.97041C6.99876 6.62973 6.81562 7.62918 7.25401 8.45213C7.8669 9.60268 8.81645 11.2061 9.80971 12.1993C10.803 13.1926 12.4063 14.1421 13.5569 14.755C14.3798 15.1934 15.3793 15.0103 16.0386 14.3509C16.9693 13.4203 18.498 13.4889 19.3415 14.4993L20.368 15.7288C21.5965 17.2003 21.5007 19.4659 19.7015 20.1273Z" stroke="#070707" style="stroke:#070707;stroke:color(display-p3 0.0275 0.0275 0.0275);stroke-opacity:1;" stroke-width="1.5" stroke-linecap="round" stroke-linejoin="round"/>
</svg>
