<svg width="17" height="16" viewBox="0 0 17 16" fill="none" xmlns="http://www.w3.org/2000/svg">
<path fill-rule="evenodd" clip-rule="evenodd" d="M14.1687 2.32545C13.4307 1.58611 12.5527 0.999875 11.5854 0.6007C10.6181 0.201524 9.58084 -0.00265381 8.53371 -5.07348e-06C4.14281 -5.07348e-06 0.56833 3.55662 0.566556 7.92844C0.566556 9.32566 0.933055 10.6893 1.62967 11.8922L0.5 16L4.72318 14.8969C5.89135 15.5298 7.20011 15.8616 8.53016 15.8622H8.53371C12.9237 15.8622 16.4982 12.3056 16.5 7.93374C16.503 6.892 16.2985 5.85999 15.8984 4.89737C15.4982 3.93475 14.9104 3.0606 14.1687 2.32545ZM8.53371 14.5241H8.53104C7.34504 14.5243 6.18086 14.2067 5.16067 13.6047L4.91929 13.4617L2.41325 14.1161L3.08147 11.6847L2.9244 11.4356C2.26132 10.385 1.9103 9.16914 1.91187 7.92844C1.91364 4.29498 4.8838 1.33892 8.53637 1.33892C9.40625 1.337 10.2679 1.5068 11.0714 1.8385C11.8749 2.1702 12.6043 2.65721 13.2174 3.27135C13.8339 3.88256 14.3224 4.6093 14.6549 5.40957C14.9875 6.20983 15.1573 7.06776 15.1547 7.93374C15.1529 11.5672 12.1827 14.5241 8.53371 14.5241ZM12.1659 9.58797C11.9662 9.48817 10.9883 9.00948 10.8055 8.94324C10.6236 8.877 10.4913 8.84432 10.3582 9.04215C10.2251 9.23999 9.84352 9.686 9.72727 9.81848C9.61102 9.95096 9.49477 9.96686 9.29599 9.86794C9.09721 9.76902 8.45561 9.55971 7.6951 8.88494C7.1032 8.35944 6.70387 7.71118 6.58762 7.51246C6.47137 7.31374 6.5752 7.20687 6.67547 7.10795C6.7651 7.01964 6.87425 6.87656 6.97364 6.76086C7.07303 6.64516 7.10587 6.56302 7.17242 6.43054C7.23898 6.29806 7.20614 6.18236 7.15556 6.08345C7.10587 5.98365 6.70742 5.0086 6.54147 4.61204C6.38085 4.22785 6.21668 4.27908 6.09422 4.27378C5.96739 4.26862 5.84046 4.26626 5.71352 4.26671C5.61258 4.26927 5.51327 4.29256 5.4218 4.33512C5.33033 4.37767 5.24868 4.43857 5.18196 4.51401C4.99916 4.71273 4.48535 5.19142 4.48535 6.16647C4.48535 7.14152 5.19883 8.08389 5.29821 8.21637C5.3976 8.34885 6.7021 10.3493 8.69876 11.2077C9.17441 11.4118 9.54535 11.5336 9.83376 11.6255C10.3103 11.7765 10.7442 11.7544 11.0877 11.7041C11.4701 11.6476 12.2653 11.2254 12.4312 10.7626C12.5971 10.2998 12.5971 9.90327 12.5475 9.82025C12.4978 9.73723 12.3638 9.68689 12.1659 9.58797Z" fill="#070707" style="fill:#070707;fill:color(display-p3 0.0275 0.0275 0.0275);fill-opacity:1;"/>
</svg>
