<svg width="187" height="106" viewBox="0 0 187 106" fill="none" xmlns="http://www.w3.org/2000/svg">
<g clip-path="url(#clip0_21_1330)">
<path d="M80.4023 0.767578C80.4023 0.767578 72.7293 2.98445 73.0688 9.819C80.3766 7.81462 80.4023 0.767578 80.4023 0.767578Z" stroke="#F7F8F9" style="stroke:#F7F8F9;stroke:color(display-p3 0.9686 0.9725 0.9765);stroke-opacity:1;" stroke-miterlimit="10"/>
<path d="M66.4015 7.37378C66.4015 7.37378 62.1135 12.426 66.2574 17.7287C70.2892 12.3467 66.4015 7.37378 66.4015 7.37378Z" stroke="#F7F8F9" style="stroke:#F7F8F9;stroke:color(display-p3 0.9686 0.9725 0.9765);stroke-opacity:1;" stroke-miterlimit="10"/>
<path d="M71.0673 1.97266C71.0673 1.97266 66.4879 6.20659 69.7159 11.5379C74.0968 6.97409 71.0673 1.97266 71.0673 1.97266Z" stroke="#F7F8F9" style="stroke:#F7F8F9;stroke:color(display-p3 0.9686 0.9725 0.9765);stroke-opacity:1;" stroke-miterlimit="10"/>
<path d="M78.436 10.4214C78.436 10.4214 70.7311 9.84739 68.8545 15.9366C76.1559 16.5741 78.436 10.4214 78.436 10.4214Z" stroke="#F7F8F9" style="stroke:#F7F8F9;stroke:color(display-p3 0.9686 0.9725 0.9765);stroke-opacity:1;" stroke-miterlimit="10"/>
<path d="M71.4869 17.2339C71.4869 17.2339 64.7907 20.0692 65.8795 26.0284C72.2682 23.4215 71.4869 17.2339 71.4869 17.2339Z" stroke="#F7F8F9" style="stroke:#F7F8F9;stroke:color(display-p3 0.9686 0.9725 0.9765);stroke-opacity:1;" stroke-miterlimit="10"/>
<path d="M64.304 22.083C65.681 15.3785 60.6084 12.8032 60.6084 12.8032C60.6084 12.8032 58.703 19.6536 64.304 22.083Z" stroke="#F7F8F9" style="stroke:#F7F8F9;stroke:color(display-p3 0.9686 0.9725 0.9765);stroke-opacity:1;" stroke-miterlimit="10"/>
<path d="M58.229 28.5781C58.229 28.5781 59.875 35.603 65.9916 35.5808C64.5185 28.8953 58.229 28.5781 58.229 28.5781Z" stroke="#F7F8F9" style="stroke:#F7F8F9;stroke:color(display-p3 0.9686 0.9725 0.9765);stroke-opacity:1;" stroke-miterlimit="10"/>
<path d="M70.5998 42.4155C68.8513 35.7966 61.8157 36.8368 61.8157 36.8368C61.8157 36.8368 63.5546 42.7453 70.5998 42.4155Z" stroke="#F7F8F9" style="stroke:#F7F8F9;stroke:color(display-p3 0.9686 0.9725 0.9765);stroke-opacity:1;" stroke-miterlimit="10"/>
<path d="M73.3699 47.2489C69.1748 41.813 63.3433 44.163 63.3433 44.163C63.3433 44.163 67.8426 49.8336 73.3699 47.2489Z" stroke="#F7F8F9" style="stroke:#F7F8F9;stroke:color(display-p3 0.9686 0.9725 0.9765);stroke-opacity:1;" stroke-miterlimit="10"/>
<path d="M76.0471 46.8745C77.6579 40.2207 72.137 37.2236 72.137 37.2236C72.137 37.2236 70.5326 44.258 76.0471 46.8745Z" stroke="#F7F8F9" style="stroke:#F7F8F9;stroke:color(display-p3 0.9686 0.9725 0.9765);stroke-opacity:1;" stroke-miterlimit="10"/>
<path d="M86.5509 51.6064C85.0073 44.9368 78.34 44.3311 78.34 44.3311C78.34 44.3311 80.4375 51.6889 86.5509 51.6064Z" stroke="#F7F8F9" style="stroke:#F7F8F9;stroke:color(display-p3 0.9686 0.9725 0.9765);stroke-opacity:1;" stroke-miterlimit="10"/>
<path d="M68.1948 50.9023C68.1948 50.9023 74.0232 54.7684 79.7074 50.2427C74.2473 46.494 68.1948 50.9023 68.1948 50.9023Z" stroke="#F7F8F9" style="stroke:#F7F8F9;stroke:color(display-p3 0.9686 0.9725 0.9765);stroke-opacity:1;" stroke-miterlimit="10"/>
<path d="M69.1427 37.5346C72.5405 31.5785 68.0667 27.1892 68.0667 27.1892C68.0667 27.1892 64.5697 33.5132 69.1427 37.5346Z" stroke="#F7F8F9" style="stroke:#F7F8F9;stroke:color(display-p3 0.9686 0.9725 0.9765);stroke-opacity:1;" stroke-miterlimit="10"/>
<path d="M64.7363 29.8785C65.4856 23.0789 59.6253 20.7922 59.6253 20.7922C59.6253 20.7922 58.9304 27.9693 64.7363 29.8785Z" stroke="#F7F8F9" style="stroke:#F7F8F9;stroke:color(display-p3 0.9686 0.9725 0.9765);stroke-opacity:1;" stroke-miterlimit="10"/>
<path d="M99.3925 60.9242C95.1814 53.8835 86.0546 54.0104 86.0546 54.0104L88.7029 54.4925C96.8114 56.6554 98.1788 61.4444 98.1788 61.4444C98.1788 61.4444 99.6359 61.7425 99.3893 60.9242H99.3925Z" stroke="#F7F8F9" style="stroke:#F7F8F9;stroke:color(display-p3 0.9686 0.9725 0.9765);stroke-opacity:1;" stroke-miterlimit="10"/>
<path d="M74.6476 54.4607C83.579 59.2877 86.0545 54.0104 86.0545 54.0104C86.0545 54.0104 81.8946 49.2785 74.6476 54.4607Z" stroke="#F7F8F9" style="stroke:#F7F8F9;stroke:color(display-p3 0.9686 0.9725 0.9765);stroke-opacity:1;" stroke-miterlimit="10"/>
<path d="M106.601 0.634277C106.601 0.634277 114.274 2.85115 113.934 9.6857C106.627 7.68132 106.601 0.634277 106.601 0.634277Z" stroke="#F7F8F9" style="stroke:#F7F8F9;stroke:color(display-p3 0.9686 0.9725 0.9765);stroke-opacity:1;" stroke-miterlimit="10"/>
<path d="M120.599 7.24365C120.599 7.24365 124.887 12.2958 120.743 17.5986C116.711 12.2165 120.599 7.24365 120.599 7.24365Z" stroke="#F7F8F9" style="stroke:#F7F8F9;stroke:color(display-p3 0.9686 0.9725 0.9765);stroke-opacity:1;" stroke-miterlimit="10"/>
<path d="M115.936 1.84253C115.936 1.84253 120.515 6.07646 117.287 11.4077C112.906 6.84396 115.936 1.84253 115.936 1.84253Z" stroke="#F7F8F9" style="stroke:#F7F8F9;stroke:color(display-p3 0.9686 0.9725 0.9765);stroke-opacity:1;" stroke-miterlimit="10"/>
<path d="M108.564 10.2884C108.564 10.2884 116.269 9.71433 118.146 15.8036C110.844 16.4411 108.564 10.2884 108.564 10.2884Z" stroke="#F7F8F9" style="stroke:#F7F8F9;stroke:color(display-p3 0.9686 0.9725 0.9765);stroke-opacity:1;" stroke-miterlimit="10"/>
<path d="M115.513 17.1006C115.513 17.1006 122.209 19.9359 121.121 25.8951C114.732 23.2882 115.513 17.1006 115.513 17.1006Z" stroke="#F7F8F9" style="stroke:#F7F8F9;stroke:color(display-p3 0.9686 0.9725 0.9765);stroke-opacity:1;" stroke-miterlimit="10"/>
<path d="M122.699 21.9499C121.322 15.2454 126.395 12.6702 126.395 12.6702C126.395 12.6702 128.3 19.5206 122.699 21.9499Z" stroke="#F7F8F9" style="stroke:#F7F8F9;stroke:color(display-p3 0.9686 0.9725 0.9765);stroke-opacity:1;" stroke-miterlimit="10"/>
<path d="M128.774 28.4451C128.774 28.4451 127.128 35.4699 121.012 35.4477C122.485 28.7622 128.774 28.4451 128.774 28.4451Z" stroke="#F7F8F9" style="stroke:#F7F8F9;stroke:color(display-p3 0.9686 0.9725 0.9765);stroke-opacity:1;" stroke-miterlimit="10"/>
<path d="M116.4 42.2822C118.149 35.6633 125.184 36.7035 125.184 36.7035C125.184 36.7035 123.446 42.612 116.4 42.2822Z" stroke="#F7F8F9" style="stroke:#F7F8F9;stroke:color(display-p3 0.9686 0.9725 0.9765);stroke-opacity:1;" stroke-miterlimit="10"/>
<path d="M113.633 47.1156C117.829 41.6797 123.66 44.0297 123.66 44.0297C123.66 44.0297 119.161 49.7003 113.633 47.1156Z" stroke="#F7F8F9" style="stroke:#F7F8F9;stroke:color(display-p3 0.9686 0.9725 0.9765);stroke-opacity:1;" stroke-miterlimit="10"/>
<path d="M110.953 46.7446C109.342 40.0908 114.863 37.0938 114.863 37.0938C114.863 37.0938 116.468 44.1281 110.953 46.7446Z" stroke="#F7F8F9" style="stroke:#F7F8F9;stroke:color(display-p3 0.9686 0.9725 0.9765);stroke-opacity:1;" stroke-miterlimit="10"/>
<path d="M100.449 51.4731C101.993 44.8035 108.66 44.1978 108.66 44.1978C108.66 44.1978 106.563 51.5556 100.449 51.4731Z" stroke="#F7F8F9" style="stroke:#F7F8F9;stroke:color(display-p3 0.9686 0.9725 0.9765);stroke-opacity:1;" stroke-miterlimit="10"/>
<path d="M118.805 50.7722C118.805 50.7722 112.977 54.6382 107.293 50.1125C112.753 46.3638 118.805 50.7722 118.805 50.7722Z" stroke="#F7F8F9" style="stroke:#F7F8F9;stroke:color(display-p3 0.9686 0.9725 0.9765);stroke-opacity:1;" stroke-miterlimit="10"/>
<path d="M117.857 37.4013C114.46 31.4452 118.933 27.0559 118.933 27.0559C118.933 27.0559 122.43 33.3799 117.857 37.4013Z" stroke="#F7F8F9" style="stroke:#F7F8F9;stroke:color(display-p3 0.9686 0.9725 0.9765);stroke-opacity:1;" stroke-miterlimit="10"/>
<path d="M122.267 29.7452C121.518 22.9456 127.378 20.6589 127.378 20.6589C127.378 20.6589 128.073 27.836 122.267 29.7452Z" stroke="#F7F8F9" style="stroke:#F7F8F9;stroke:color(display-p3 0.9686 0.9725 0.9765);stroke-opacity:1;" stroke-miterlimit="10"/>
<path d="M87.6108 60.7909C91.822 53.7502 100.949 53.8771 100.949 53.8771L98.3004 54.3592C90.192 56.5221 88.8245 61.3111 88.8245 61.3111C88.8245 61.3111 87.3675 61.6092 87.614 60.7909H87.6108Z" stroke="#F7F8F9" style="stroke:#F7F8F9;stroke:color(display-p3 0.9686 0.9725 0.9765);stroke-opacity:1;" stroke-miterlimit="10"/>
<path d="M112.356 54.3306C103.424 59.1576 100.949 53.8802 100.949 53.8802C100.949 53.8802 105.109 49.1484 112.356 54.3306Z" stroke="#F7F8F9" style="stroke:#F7F8F9;stroke:color(display-p3 0.9686 0.9725 0.9765);stroke-opacity:1;" stroke-miterlimit="10"/>
<path d="M13.2227 83.0739C13.0017 83.0739 12.7936 83.0073 12.595 82.8741C12.3997 82.7409 12.1883 82.5062 11.9673 82.17C11.7464 81.8338 11.4934 81.3771 11.2116 80.7904L6.69301 71.7675C6.6802 71.7295 6.63217 71.7136 6.5457 71.7136C6.45924 71.7136 6.4048 71.7327 6.37918 71.7675L2.41463 80.6255C2.13282 81.2693 1.87342 81.7736 1.63965 82.132C1.40588 82.4903 1.1689 82.7377 0.92872 82.8709C0.688541 83.0041 0.403529 83.0707 0.070481 83.0707C0.0224452 83.0707 -0.00317383 83.1056 -0.00317383 83.1817C-0.00317383 83.2578 0.0224452 83.2927 0.070481 83.2927C0.477184 83.2927 0.816636 83.28 1.09524 83.2578C1.37385 83.2356 1.74213 83.2198 2.20967 83.2198C2.67722 83.2198 3.06471 83.2325 3.37214 83.2578C3.67957 83.2832 4.01902 83.2927 4.38729 83.2927C4.44814 83.2927 4.48016 83.2578 4.48016 83.1817C4.48016 83.1056 4.44814 83.0707 4.38729 83.0707C3.66035 83.0707 3.14797 82.8773 2.84695 82.4872C2.54592 82.0971 2.55553 81.5325 2.87577 80.7872L4.29122 77.6284H7.63771L9.62319 81.6277C9.91781 82.2017 10.0107 82.5823 9.8986 82.7789C9.78651 82.9756 9.45667 83.0707 8.90266 83.0707C8.85462 83.0707 8.829 83.1056 8.829 83.1817C8.829 83.2578 8.85462 83.2927 8.90266 83.2927C9.27093 83.2927 9.60718 83.28 9.9082 83.2578C10.2092 83.2325 10.5615 83.2198 10.9682 83.2198C11.3237 83.2198 11.6951 83.2325 12.0826 83.2578C12.4701 83.2832 12.848 83.2927 13.2163 83.2927C13.2643 83.2927 13.2899 83.2578 13.2899 83.1817C13.2899 83.1056 13.2643 83.0707 13.2163 83.0707L13.2227 83.0739ZM4.50578 77.1559L5.87961 74.0891L7.40394 77.1559H4.50578Z" fill="#F7F8F9" style="fill:#F7F8F9;fill:color(display-p3 0.9686 0.9725 0.9765);fill-opacity:1;"/>
<path d="M20.2231 77.7204C19.8004 77.4032 19.352 77.1051 18.8845 76.826C18.4554 76.5596 18.0455 76.2837 17.658 76.0046C17.2705 75.7255 16.9535 75.4115 16.7069 75.0627C16.4603 74.717 16.3386 74.3047 16.3386 73.829C16.3386 73.4516 16.4122 73.1312 16.5596 72.8712C16.7069 72.6111 16.915 72.405 17.1872 72.2591C17.4562 72.1132 17.7765 72.0403 18.1447 72.0403C18.6251 72.0403 19.0286 72.1576 19.3616 72.3859C19.6947 72.6143 19.9701 72.8966 20.1911 73.2264C20.412 73.5562 20.585 73.8797 20.7066 74.2032C20.8283 74.5267 20.9212 74.7772 20.982 74.9612C21.0077 74.9961 21.0461 75.0088 21.1005 74.9961C21.155 74.9834 21.1838 74.9548 21.1838 74.9041L21.1454 72.4399C21.1454 72.3669 21.1262 72.3003 21.0909 72.2401C21.0525 72.1798 20.9788 72.1291 20.87 72.0942C20.5753 71.961 20.2167 71.8563 19.8004 71.7834C19.3809 71.7104 18.971 71.6724 18.5643 71.6724C17.9622 71.6724 17.3762 71.777 16.8029 71.9832C16.2297 72.1893 15.7622 72.5065 15.3907 72.9346C15.0192 73.3628 14.8367 73.9083 14.8367 74.5774C14.8367 75.1261 14.9616 75.5923 15.2146 75.9729C15.4675 76.3566 15.7878 76.696 16.1817 76.9878C16.5756 77.2795 16.9855 77.565 17.4178 77.8472C17.8597 78.1168 18.2856 78.4023 18.6891 78.7067C19.0926 79.0112 19.4289 79.3664 19.6947 79.7755C19.9605 80.1846 20.0918 80.673 20.0918 81.2471C20.0918 81.7228 19.9989 82.097 19.8164 82.3698C19.6338 82.6425 19.3969 82.836 19.1151 82.9438C18.8333 83.0548 18.5322 83.1087 18.212 83.1087C17.7572 83.1087 17.3537 83.0009 17.0047 82.7884C16.6556 82.5759 16.345 82.2968 16.0728 81.9575C15.8038 81.6181 15.5668 81.2439 15.3619 80.8348C15.1601 80.4257 14.984 80.0387 14.8367 79.674C14.8239 79.6264 14.7854 79.6042 14.7182 79.6106C14.6509 79.6169 14.6221 79.6486 14.6349 79.7121L14.747 82.4713C14.7598 82.5696 14.7822 82.6425 14.8111 82.6901C14.8431 82.7377 14.8815 82.7821 14.9295 82.817C15.1249 82.9375 15.3811 83.0548 15.6949 83.1627C16.0087 83.2737 16.345 83.3561 16.7101 83.4195C17.0719 83.4798 17.421 83.5115 17.7508 83.5115C18.5386 83.5115 19.2239 83.3751 19.8068 83.0992C20.3896 82.8265 20.8475 82.4491 21.1806 81.967C21.5136 81.4849 21.677 80.9299 21.677 80.2956C21.677 79.7121 21.5393 79.2142 21.2607 78.8082C20.9853 78.3991 20.633 78.0375 20.2103 77.7204H20.2231Z" fill="#F7F8F9" style="fill:#F7F8F9;fill:color(display-p3 0.9686 0.9725 0.9765);fill-opacity:1;"/>
<path d="M33.7852 71.3489C33.7243 71.3489 33.6859 71.3742 33.6731 71.4218C33.6123 71.6153 33.4682 71.7421 33.2408 71.7961C33.0134 71.85 32.6772 71.8785 32.2352 71.8785C31.7549 71.8785 31.2617 71.888 30.7493 71.9071C30.2401 71.9261 29.5484 71.9356 28.6742 71.9356C27.2587 71.9356 26.0258 71.9166 24.969 71.8817C24.8569 71.8817 24.7224 71.8722 24.5623 71.8531C24.4022 71.8341 24.2581 71.7992 24.13 71.7421C24.0019 71.6851 23.9379 71.5994 23.9379 71.4789C23.9379 71.4186 23.9026 71.3869 23.8354 71.3869C23.7681 71.3869 23.7329 71.4186 23.7329 71.4789C23.7329 71.6851 23.7233 71.9578 23.7041 72.2908C23.6849 72.627 23.6625 72.9695 23.6304 73.3215C23.5984 73.6736 23.5728 74.0002 23.5472 74.2984C23.5215 74.5965 23.4991 74.8312 23.4735 75.0024C23.4735 75.0278 23.5087 75.0405 23.576 75.0468C23.6432 75.0532 23.6785 75.0373 23.6785 75.0024C23.9475 74.1017 24.3221 73.4199 24.7929 72.9568C25.2668 72.4938 25.8785 72.2623 26.6279 72.2623C26.9609 72.2623 27.2107 72.294 27.3836 72.3542C27.5566 72.4145 27.6686 72.5223 27.7263 72.6746C27.7807 72.8268 27.8095 73.0551 27.8095 73.3596V81.8148C27.8095 82.1668 27.7679 82.4364 27.691 82.6172C27.611 82.8011 27.4541 82.9216 27.2203 82.9819C26.9865 83.0421 26.6375 83.0739 26.1699 83.0739C26.1443 83.0739 26.1315 83.1087 26.1315 83.1849C26.1315 83.261 26.1443 83.2959 26.1699 83.2959C26.5254 83.2959 26.9129 83.2895 27.3324 83.2768C27.7487 83.2641 28.2002 83.2578 28.6774 83.2578C29.1802 83.2578 29.6445 83.2641 30.0704 83.2768C30.4931 83.2895 30.871 83.2959 31.2041 83.2959C31.2425 83.2959 31.2585 83.261 31.2585 83.1849C31.2585 83.1087 31.2393 83.0739 31.2041 83.0739C30.7365 83.0739 30.3907 83.0421 30.1633 82.9819C29.9359 82.9216 29.7822 82.7979 29.7021 82.6172C29.6221 82.4332 29.5837 82.1668 29.5837 81.8148V73.3945C29.5837 73.09 29.6157 72.8553 29.6765 72.6904C29.7374 72.5255 29.8559 72.4145 30.0256 72.3511C30.1985 72.2908 30.4483 72.2591 30.7814 72.2591C31.5435 72.2591 32.152 72.4748 32.6067 72.9061C33.0614 73.3374 33.3561 74.0351 33.4906 74.9961C33.5034 75.0215 33.5418 75.0341 33.6091 75.0341C33.6763 75.0341 33.7115 75.0215 33.7115 74.9961C33.7115 74.8375 33.7179 74.6028 33.7307 74.292C33.7436 73.9812 33.7564 73.6419 33.7692 73.2708C33.782 72.8997 33.8012 72.5477 33.8236 72.2115C33.8492 71.8753 33.8652 71.6121 33.8781 71.4186C33.8781 71.3711 33.846 71.3457 33.7852 71.3457V71.3489Z" fill="#F7F8F9" style="fill:#F7F8F9;fill:color(display-p3 0.9686 0.9725 0.9765);fill-opacity:1;"/>
<path d="M45.967 82.4714C45.4194 82.0686 44.7917 81.4121 44.0872 80.4987C43.4051 79.6202 42.5885 78.4468 41.6406 76.9911C41.8711 76.8578 42.0889 76.7088 42.2907 76.5344C42.6589 76.2172 42.9536 75.8525 43.1745 75.437C43.3955 75.0247 43.5076 74.5839 43.5076 74.1209C43.5076 73.4009 43.2129 72.8396 42.6237 72.4305C42.0345 72.0213 41.1922 71.8184 40.097 71.8184C39.7287 71.8184 39.3285 71.8374 38.8993 71.8723C38.4702 71.9072 38.0763 71.9262 37.7177 71.9262C37.2885 71.9262 36.8786 71.9167 36.4911 71.8976C36.1036 71.8786 35.7578 71.8691 35.4504 71.8691C35.4247 71.8691 35.4119 71.904 35.4119 71.9801C35.4119 72.0562 35.4247 72.0911 35.4504 72.0911C35.8571 72.0911 36.1581 72.126 36.3534 72.1926C36.5488 72.2592 36.6833 72.3829 36.7505 72.5573C36.8178 72.7349 36.853 72.9982 36.853 73.3502V81.8054C36.853 82.1574 36.8146 82.427 36.7409 82.6078C36.6673 82.7917 36.5328 82.9122 36.3342 82.9725C36.1357 83.0327 35.8379 83.0645 35.4311 83.0645C35.3927 83.0645 35.3767 83.0993 35.3767 83.1755C35.3767 83.2516 35.3959 83.2864 35.4311 83.2864C35.7386 83.2864 36.0876 83.2801 36.4815 83.2674C36.8754 83.2547 37.2853 83.2484 37.7177 83.2484C38.1724 83.2484 38.5919 83.2547 38.973 83.2674C39.3541 83.2801 39.6967 83.2864 40.0042 83.2864C40.0426 83.2864 40.0586 83.2516 40.0586 83.1755C40.0586 83.0993 40.0394 83.0645 40.0042 83.0645C39.6103 83.0645 39.3124 83.0327 39.1107 82.9725C38.9089 82.9122 38.7744 82.7885 38.7136 82.6078C38.6527 82.4238 38.6207 82.1574 38.6207 81.8054V77.5302C38.7552 77.5429 38.9089 77.5492 39.0819 77.5492H39.5622C39.7768 77.5492 39.9849 77.5302 40.1931 77.4953C40.888 78.6529 41.5253 79.6583 42.0985 80.4987C42.707 81.3931 43.2258 82.0813 43.6581 82.5634C44.0872 83.0454 44.3946 83.2833 44.5804 83.2833H47.549C47.5746 83.2833 47.5842 83.2484 47.5842 83.1723C47.5842 83.0962 47.5714 83.0613 47.549 83.0613C47.0462 83.0613 46.5178 82.8615 45.9734 82.4587L45.967 82.4714ZM39.1715 77.083C38.9762 77.0703 38.7904 77.0513 38.6175 77.0291V73.3946C38.6175 73.0648 38.656 72.8142 38.7296 72.6366C38.8033 72.459 38.9249 72.3385 39.0979 72.2719C39.2708 72.2053 39.4982 72.1704 39.78 72.1704C40.1483 72.1704 40.4749 72.2433 40.7567 72.3892C41.0385 72.5351 41.2627 72.8015 41.4292 73.1821C41.5957 73.5627 41.679 74.105 41.679 74.7996C41.679 75.6749 41.5285 76.2775 41.2275 76.6073C40.9264 76.9371 40.4141 77.0989 39.6871 77.0989C39.5398 77.0989 39.3669 77.0925 39.1715 77.0799V77.083Z" fill="#F7F8F9" style="fill:#F7F8F9;fill:color(display-p3 0.9686 0.9725 0.9765);fill-opacity:1;"/>
<path d="M58.2322 71.9038C57.9184 71.9228 57.6013 71.9323 57.2811 71.9323C56.9128 71.9323 56.5701 71.9228 56.2563 71.9038C55.9425 71.8848 55.6318 71.8752 55.3244 71.8752C55.2988 71.8752 55.286 71.9101 55.286 71.9862C55.286 72.0624 55.2988 72.0972 55.3244 72.0972C55.8656 72.0972 56.2787 72.2749 56.5701 72.6269C56.8584 72.9789 57.0025 73.4737 57.0025 74.1048V79.2363C57.0025 80.4034 56.7079 81.3104 56.1186 81.9479C55.5294 82.5854 54.7096 82.9057 53.6656 82.9057C52.6216 82.9057 51.7506 82.56 51.1293 81.8654C50.508 81.1709 50.1974 80.0831 50.1974 78.5956V73.3912C50.1974 73.0392 50.2326 72.7696 50.2999 72.5888C50.3671 72.4049 50.4984 72.278 50.697 72.2051C50.8923 72.1321 51.1933 72.0941 51.6001 72.0941C51.6385 72.0941 51.6545 72.0592 51.6545 71.9831C51.6545 71.907 51.6353 71.8721 51.6001 71.8721C51.2926 71.8721 50.9468 71.8816 50.5689 71.9006C50.1878 71.9196 49.7683 71.9292 49.3135 71.9292C48.8844 71.9292 48.4745 71.9196 48.087 71.9006C47.6995 71.8816 47.3537 71.8721 47.0463 71.8721C47.011 71.8721 46.9918 71.907 46.9918 71.9831C46.9918 72.0592 47.011 72.0941 47.0463 72.0941C47.4402 72.0941 47.738 72.129 47.9397 72.1956C48.1415 72.2622 48.2792 72.3859 48.3464 72.5603C48.4137 72.7379 48.4489 73.0011 48.4489 73.3532V79.2331C48.4489 80.1211 48.641 80.8886 49.0285 81.5356C49.416 82.1794 49.9604 82.6773 50.6618 83.023C51.3631 83.3687 52.1605 83.5431 53.0603 83.5431C53.9602 83.5431 54.764 83.3655 55.4397 83.0135C56.1154 82.6615 56.6406 82.1604 57.0153 81.5166C57.39 80.8727 57.5789 80.1053 57.5789 79.2141V74.1016C57.5789 73.4673 57.707 72.9758 57.9664 72.6237C58.2258 72.2717 58.6005 72.0941 59.0904 72.0941C59.116 72.0941 59.1257 72.0592 59.1257 71.9831C59.1257 71.907 59.1128 71.8721 59.0904 71.8721C58.831 71.8721 58.546 71.8816 58.2322 71.9006V71.9038Z" fill="#F7F8F9" style="fill:#F7F8F9;fill:color(display-p3 0.9686 0.9725 0.9765);fill-opacity:1;"/>
<path d="M74.7276 83.0738C74.3337 83.0738 74.0359 83.042 73.8342 82.9818C73.6324 82.9215 73.4947 82.7978 73.4274 82.6171C73.3602 82.4331 73.3122 82.1667 73.2897 81.8147L72.883 73.4673C72.8574 72.9694 72.9823 72.6142 73.2513 72.4081C73.5203 72.2019 73.9398 72.0972 74.5067 72.0972C74.5419 72.0972 74.5611 72.0624 74.5611 71.9862C74.5611 71.9101 74.5419 71.8752 74.5067 71.8752C74.2601 71.8752 74.0103 71.8816 73.7509 71.8943C73.4915 71.907 73.1777 71.9133 72.8094 71.9133C72.6237 71.9133 72.4667 71.907 72.3386 71.8943C72.2105 71.8816 72.0889 71.8752 71.98 71.8752C71.8583 71.8752 71.7526 71.9101 71.6661 71.9862C71.5797 72.0592 71.4996 72.1765 71.426 72.3319L67.7496 80.6888L63.6986 72.8235C63.4905 72.4207 63.3399 72.1638 63.2471 72.0465C63.1542 71.9323 63.0229 71.8721 62.85 71.8721C62.7283 71.8721 62.5586 71.8784 62.344 71.8911C62.1294 71.9038 61.8861 71.9101 61.6171 71.9101C61.4313 71.9101 61.2072 71.9038 60.9446 71.8911C60.6788 71.8784 60.4322 71.8721 60.1984 71.8721C60.16 71.8721 60.144 71.907 60.144 71.9831C60.144 72.0592 60.1632 72.0941 60.1984 72.0941C60.8645 72.0941 61.4089 72.4747 61.838 73.2263L61.6747 81.0789C61.6619 81.7227 61.5178 82.2175 61.2424 82.5568C60.967 82.8993 60.5763 83.0674 60.0703 83.0674C60.0351 83.0674 60.0159 83.1023 60.0159 83.1784C60.0159 83.2545 60.0351 83.2894 60.0703 83.2894C60.3393 83.2894 60.6275 83.2831 60.9285 83.2704C61.2296 83.2577 61.5658 83.2514 61.9341 83.2514C62.3024 83.2514 62.6098 83.2577 62.8916 83.2704C63.1734 83.2831 63.452 83.2894 63.721 83.2894C63.7563 83.2894 63.7755 83.2545 63.7755 83.1784C63.7755 83.1023 63.7563 83.0674 63.721 83.0674C63.1926 83.0674 62.7955 82.8962 62.5329 82.5568C62.2671 82.2175 62.1422 81.7227 62.1551 81.0789L62.3152 74.1365L66.9298 83.1594C66.9554 83.207 67.0099 83.2323 67.0963 83.2323C67.1828 83.2323 67.2308 83.207 67.2436 83.1594L71.1794 74.0223L71.5412 81.8052C71.5797 82.3285 71.5092 82.671 71.3395 82.8264C71.1666 82.985 70.7855 83.0642 70.1962 83.0642C70.1706 83.0642 70.1578 83.0991 70.1578 83.1753C70.1578 83.2514 70.1706 83.2862 70.1962 83.2862C70.5037 83.2862 70.8431 83.2799 71.221 83.2672C71.5957 83.2545 71.9992 83.2482 72.4283 83.2482C72.8574 83.2482 73.2705 83.2545 73.6644 83.2672C74.0583 83.2799 74.4138 83.2862 74.734 83.2862C74.7596 83.2862 74.7725 83.2514 74.7725 83.1753C74.7725 83.0991 74.7596 83.0642 74.734 83.0642L74.7276 83.0738Z" fill="#F7F8F9" style="fill:#F7F8F9;fill:color(display-p3 0.9686 0.9725 0.9765);fill-opacity:1;"/>
<path d="M89.2408 80.1148C89.18 80.1021 89.1415 80.1148 89.1287 80.1528C88.9334 80.9552 88.5331 81.6022 87.931 82.0874C87.329 82.5758 86.5924 82.8169 85.7182 82.8169H84.6102C84.2771 82.8169 84.0273 82.7915 83.8544 82.7439C83.6815 82.6964 83.5662 82.5917 83.5053 82.4331C83.4445 82.2745 83.4125 82.043 83.4125 81.7386V73.3722C83.4125 73.0202 83.4477 72.7506 83.515 72.5698C83.5822 72.3859 83.7167 72.2622 83.9217 72.1956C84.1234 72.129 84.4212 72.0941 84.8151 72.0941C84.8503 72.0941 84.8696 72.0592 84.8696 71.9831C84.8696 71.907 84.8503 71.8721 84.8151 71.8721C84.5205 71.8721 84.1778 71.8816 83.7904 71.9006C83.4029 71.9196 82.9834 71.9292 82.5286 71.9292C82.0995 71.9292 81.6864 71.9196 81.2925 71.9006C80.8986 71.8816 80.556 71.8721 80.2613 71.8721C80.2357 71.8721 80.2229 71.907 80.2229 71.9831C80.2229 72.0592 80.2357 72.0941 80.2613 72.0941C80.6552 72.0941 80.953 72.129 81.1548 72.1956C81.3565 72.2622 81.4942 72.3859 81.5615 72.5603C81.6287 72.7379 81.664 73.0011 81.664 73.3532V81.8083C81.664 82.1604 81.6287 82.43 81.5615 82.6107C81.4942 82.7947 81.3597 82.9152 81.1548 82.9754C80.953 83.0357 80.6552 83.0674 80.2613 83.0674C80.2357 83.0674 80.2229 83.1023 80.2229 83.1784C80.2229 83.2545 80.2357 83.2894 80.2613 83.2894H88.8918C89.0775 83.2894 89.1672 83.1975 89.1672 83.0167C89.1672 82.5663 89.1864 82.0747 89.2216 81.5451C89.26 81.0155 89.2953 80.5619 89.3337 80.1845C89.3337 80.1496 89.3017 80.1243 89.2408 80.1116V80.1148Z" fill="#F7F8F9" style="fill:#F7F8F9;fill:color(display-p3 0.9686 0.9725 0.9765);fill-opacity:1;"/>
<path d="M98.8768 80.4256C98.8096 80.4129 98.768 80.4256 98.7583 80.4605C98.5374 81.2406 98.1691 81.8274 97.6503 82.2238C97.1347 82.6202 96.459 82.8169 95.6232 82.8169H94.7201C94.4511 82.8169 94.2398 82.782 94.0925 82.7154C93.9452 82.6488 93.8363 82.5314 93.769 82.3697C93.7018 82.2048 93.6665 81.9955 93.6665 81.7386V77.5934H95.4183C96.1068 77.5934 96.6223 77.7266 96.9682 77.9962C97.3109 78.2626 97.4838 78.6527 97.4838 79.1665C97.4838 79.1919 97.5222 79.2014 97.5959 79.2014C97.6695 79.2014 97.708 79.1887 97.708 79.1665C97.708 78.8271 97.6983 78.5132 97.6791 78.2246C97.6599 77.9359 97.6503 77.6505 97.6503 77.3556C97.6503 77.124 97.6503 76.8989 97.6599 76.68C97.6663 76.4612 97.6695 76.1567 97.6695 75.7667C97.6695 75.7286 97.6343 75.7127 97.5671 75.7127C97.4998 75.7127 97.4646 75.7318 97.4646 75.7667C97.4646 76.2043 97.2981 76.5405 96.9682 76.772C96.6352 77.0035 96.126 77.1177 95.4375 77.1177H93.6665V73.3912C93.6665 73.1343 93.705 72.9313 93.7786 72.7791C93.8523 72.6269 93.9772 72.5191 94.1565 72.4493C94.3358 72.3827 94.576 72.3478 94.8835 72.3478H95.6392C96.3405 72.3478 96.9042 72.519 97.3365 72.8584C97.7656 73.2009 98.0506 73.7179 98.1851 74.4093C98.2107 74.4441 98.2524 74.46 98.3132 74.4537C98.3741 74.4473 98.4061 74.4315 98.4061 74.4093L98.3709 72.0338C98.3709 71.9228 98.31 71.8689 98.1851 71.8689H90.5122C90.4738 71.8689 90.4578 71.9038 90.4578 71.9799C90.4578 72.056 90.477 72.0909 90.5122 72.0909C90.9189 72.0909 91.2199 72.1258 91.4153 72.1924C91.6106 72.259 91.7451 72.3827 91.8124 72.5571C91.8796 72.7347 91.9148 72.9979 91.9148 73.35V81.8052C91.9148 82.1572 91.8796 82.4268 91.8124 82.6075C91.7451 82.7915 91.6138 82.912 91.4153 82.9723C91.2167 83.0325 90.9189 83.0642 90.5122 83.0642C90.4738 83.0642 90.4578 83.0991 90.4578 83.1752C90.4578 83.2514 90.477 83.2862 90.5122 83.2862H98.515C98.7007 83.2862 98.7904 83.1943 98.7904 83.0135C98.7904 82.6107 98.8096 82.1731 98.8448 81.6973C98.88 81.2216 98.9249 80.8157 98.9729 80.4731C98.9729 80.4478 98.9377 80.4319 98.8704 80.4192L98.8768 80.4256Z" fill="#F7F8F9" style="fill:#F7F8F9;fill:color(display-p3 0.9686 0.9725 0.9765);fill-opacity:1;"/>
<path d="M112.442 78.7797C111.706 78.8145 110.998 78.8304 110.322 78.8241C109.646 78.8177 108.897 78.7892 108.071 78.7416C108.01 78.7416 107.978 78.7892 107.978 78.8875C107.978 78.9858 108.013 79.0334 108.09 79.0334C108.692 79.0334 109.124 79.0746 109.39 79.1602C109.656 79.2459 109.823 79.4235 109.896 79.6994C109.97 79.9721 110.008 80.4035 110.008 80.987C110.008 81.6086 109.938 82.078 109.797 82.392C109.656 82.7091 109.432 82.9216 109.124 83.0326C108.817 83.1436 108.404 83.1975 107.888 83.1975C106.905 83.1975 106.028 82.9375 105.259 82.4205C104.491 81.9036 103.882 81.1773 103.434 80.2481C102.985 79.3156 102.761 78.2437 102.761 77.0258C102.761 75.5416 103.117 74.3523 103.831 73.4643C104.545 72.5762 105.589 72.1322 106.966 72.1322C107.962 72.1322 108.83 72.3891 109.566 72.8997C110.303 73.4103 110.857 74.1239 111.225 75.0373C111.251 75.0849 111.292 75.1007 111.353 75.0817C111.414 75.0627 111.446 75.0437 111.446 75.0183L111.225 72.6428C111.212 72.5223 111.193 72.4335 111.171 72.3796C111.145 72.3257 111.078 72.2718 110.969 72.2242C110.601 72.0403 110.124 71.9039 109.541 71.8119C108.958 71.7199 108.388 71.6755 107.834 71.6755C106.825 71.6755 105.896 71.8214 105.048 72.1132C104.199 72.405 103.459 72.8173 102.825 73.3469C102.191 73.8765 101.701 74.5108 101.349 75.2466C101 75.9824 100.824 76.8038 100.824 77.7045C100.824 78.7892 101.086 79.7692 101.608 80.6445C102.13 81.5198 102.886 82.2176 103.876 82.7345C104.865 83.2515 106.053 83.5115 107.443 83.5115C108.106 83.5115 108.798 83.4639 109.518 83.3656C110.239 83.2673 110.931 83.1468 111.593 83.0009C111.68 82.9755 111.738 82.9533 111.77 82.928C111.802 82.9026 111.814 82.855 111.814 82.7821C111.814 82.6838 111.805 82.5918 111.786 82.4998C111.766 82.4078 111.747 82.2651 111.722 82.0717C111.696 81.8782 111.686 81.5769 111.686 81.1773C111.686 80.5335 111.699 80.0578 111.722 79.7533C111.747 79.4488 111.814 79.2522 111.923 79.1602C112.032 79.0683 112.205 79.0302 112.439 79.0429C112.5 79.0429 112.532 79.0017 112.532 78.916C112.532 78.8304 112.5 78.7892 112.439 78.7892L112.442 78.7797Z" fill="#F7F8F9" style="fill:#F7F8F9;fill:color(display-p3 0.9686 0.9725 0.9765);fill-opacity:1;"/>
<path d="M126.347 83.0739C126.126 83.0739 125.918 83.0073 125.719 82.8741C125.524 82.7409 125.313 82.5062 125.092 82.17C124.871 81.8338 124.618 81.3771 124.336 80.7904L119.817 71.7675C119.804 71.7295 119.756 71.7136 119.67 71.7136C119.584 71.7136 119.529 71.7327 119.503 71.7675L115.539 80.6255C115.257 81.2693 114.998 81.7736 114.764 82.132C114.53 82.4903 114.293 82.7377 114.053 82.8709C113.813 83.0041 113.528 83.0707 113.195 83.0707C113.147 83.0707 113.121 83.1056 113.121 83.1817C113.121 83.2578 113.147 83.2927 113.195 83.2927C113.601 83.2927 113.941 83.28 114.22 83.2578C114.498 83.2356 114.866 83.2198 115.334 83.2198C115.801 83.2198 116.189 83.2325 116.496 83.2578C116.804 83.2832 117.143 83.2927 117.512 83.2927C117.572 83.2927 117.604 83.2578 117.604 83.1817C117.604 83.1056 117.572 83.0707 117.512 83.0707C116.785 83.0707 116.272 82.8773 115.971 82.4872C115.67 82.0971 115.68 81.5325 116 80.7872L117.415 77.6284H120.762L122.747 81.6277C123.042 82.2017 123.135 82.5823 123.023 82.7789C122.911 82.9756 122.581 83.0707 122.027 83.0707C121.979 83.0707 121.953 83.1056 121.953 83.1817C121.953 83.2578 121.979 83.2927 122.027 83.2927C122.395 83.2927 122.731 83.28 123.032 83.2578C123.333 83.2325 123.686 83.2198 124.092 83.2198C124.448 83.2198 124.819 83.2325 125.207 83.2578C125.594 83.2832 125.972 83.2927 126.341 83.2927C126.389 83.2927 126.414 83.2578 126.414 83.1817C126.414 83.1056 126.389 83.0707 126.341 83.0707L126.347 83.0739ZM117.63 77.1559L119.004 74.0891L120.528 77.1559H117.63Z" fill="#F7F8F9" style="fill:#F7F8F9;fill:color(display-p3 0.9686 0.9725 0.9765);fill-opacity:1;"/>
<path d="M136.009 80.1148C135.948 80.1021 135.909 80.1148 135.896 80.1528C135.698 80.9552 135.301 81.6022 134.699 82.0874C134.097 82.5758 133.357 82.8169 132.486 82.8169H131.378C131.045 82.8169 130.795 82.7915 130.622 82.7439C130.449 82.6964 130.334 82.5917 130.273 82.4331C130.212 82.2745 130.18 82.043 130.18 81.7386V73.3722C130.18 73.0202 130.212 72.7506 130.283 72.5698C130.35 72.3859 130.484 72.2622 130.689 72.1956C130.891 72.129 131.189 72.0941 131.583 72.0941C131.618 72.0941 131.637 72.0592 131.637 71.9831C131.637 71.907 131.618 71.8721 131.583 71.8721C131.288 71.8721 130.946 71.8816 130.558 71.9006C130.171 71.9196 129.748 71.9292 129.296 71.9292C128.867 71.9292 128.454 71.9196 128.06 71.9006C127.666 71.8816 127.324 71.8721 127.026 71.8721C127 71.8721 126.991 71.907 126.991 71.9831C126.991 72.0592 127.003 72.0941 127.026 72.0941C127.42 72.0941 127.718 72.129 127.919 72.1956C128.121 72.2622 128.259 72.3859 128.326 72.5603C128.393 72.7379 128.428 73.0011 128.428 73.3532V81.8083C128.428 82.1604 128.393 82.43 128.326 82.6107C128.259 82.7947 128.124 82.9152 127.919 82.9754C127.718 83.0357 127.417 83.0674 127.026 83.0674C127 83.0674 126.991 83.1023 126.991 83.1784C126.991 83.2545 127.003 83.2894 127.026 83.2894H135.656C135.842 83.2894 135.932 83.1975 135.932 83.0167C135.932 82.5663 135.951 82.0747 135.986 81.5451C136.021 81.0155 136.06 80.5619 136.098 80.1845C136.098 80.1496 136.066 80.1243 136.005 80.1116L136.009 80.1148Z" fill="#F7F8F9" style="fill:#F7F8F9;fill:color(display-p3 0.9686 0.9725 0.9765);fill-opacity:1;"/>
<path d="M138.369 81.5737C138.036 81.5737 137.776 81.6562 137.584 81.8211C137.392 81.986 137.299 82.2207 137.299 82.5252C137.299 82.7916 137.379 83.0136 137.539 83.1817C137.699 83.3529 137.927 83.4386 138.221 83.4386C138.349 83.4386 138.458 83.4132 138.554 83.3783C138.625 83.5496 138.663 83.8065 138.663 84.1522C138.663 84.5771 138.612 84.9831 138.506 85.3668C138.401 85.7506 138.183 86.1502 137.853 86.5625C137.827 86.6101 137.834 86.6545 137.872 86.6893C137.908 86.7274 137.952 86.7274 138 86.6893C138.516 86.166 138.926 85.6269 139.227 85.0719C139.528 84.5169 139.678 83.9238 139.678 83.2927C139.678 82.7091 139.563 82.2746 139.336 81.9955C139.108 81.7165 138.785 81.5769 138.369 81.5769V81.5737Z" fill="#F7F8F9" style="fill:#F7F8F9;fill:color(display-p3 0.9686 0.9725 0.9765);fill-opacity:1;"/>
<path d="M152.578 72.1228C151.995 71.923 151.325 71.8215 150.576 71.8215C150.134 71.8215 149.676 71.8406 149.202 71.8754C148.728 71.9103 148.344 71.9294 148.049 71.9294C147.62 71.9294 147.21 71.9198 146.823 71.9008C146.435 71.8818 146.09 71.8723 145.782 71.8723C145.747 71.8723 145.728 71.9072 145.728 71.9833C145.728 72.0594 145.747 72.0943 145.782 72.0943C146.189 72.0943 146.49 72.1292 146.685 72.1958C146.881 72.2624 147.015 72.3861 147.082 72.5605C147.15 72.7381 147.185 73.0013 147.185 73.3534V81.8085C147.185 82.1606 147.15 82.4302 147.082 82.6109C147.015 82.7949 146.884 82.9154 146.685 82.9756C146.487 83.0359 146.189 83.0676 145.782 83.0676C145.747 83.0676 145.728 83.1025 145.728 83.1786C145.728 83.2547 145.747 83.2896 145.782 83.2896C146.09 83.2896 146.439 83.2833 146.832 83.2706C147.226 83.2579 147.636 83.2516 148.069 83.2516C148.61 83.2516 149.109 83.2579 149.571 83.2706C150.032 83.2833 150.458 83.2896 150.851 83.2896C150.89 83.2896 150.906 83.2547 150.906 83.1786C150.906 83.1025 150.887 83.0676 150.851 83.0676C150.297 83.0676 149.884 83.0296 149.606 82.9566C149.33 82.8837 149.148 82.7536 149.061 82.5633C148.975 82.3731 148.933 82.0971 148.933 81.7324V73.3851C148.933 73.033 148.962 72.7698 149.026 72.5985C149.087 72.4273 149.199 72.3163 149.359 72.2592C149.519 72.2053 149.74 72.1767 150.022 72.1767C150.563 72.1767 151.021 72.2941 151.396 72.5319C151.771 72.7698 152.062 73.1123 152.273 73.5627C152.481 74.013 152.587 74.5617 152.587 75.2055C152.587 75.8874 152.478 76.4551 152.264 76.9054C152.049 77.3558 151.767 77.692 151.425 77.9108C151.079 78.1296 150.704 78.2406 150.301 78.2406C150.214 78.2406 150.109 78.2343 149.987 78.2216C149.865 78.2089 149.753 78.1899 149.654 78.1677C149.606 78.155 149.574 78.1899 149.561 78.2692C149.548 78.3484 149.561 78.3929 149.599 78.4055C149.747 78.4404 149.897 78.4658 150.051 78.4785C150.205 78.4912 150.349 78.4975 150.483 78.4975C150.964 78.4975 151.444 78.4214 151.921 78.2692C152.398 78.1169 152.84 77.8918 153.24 77.5936C153.641 77.2955 153.958 76.9149 154.192 76.4519C154.425 75.9889 154.534 75.4402 154.525 74.8091C154.499 74.0923 154.316 73.5119 153.971 73.0743C153.625 72.6366 153.16 72.3163 152.578 72.1165V72.1228Z" fill="#F7F8F9" style="fill:#F7F8F9;fill:color(display-p3 0.9686 0.9725 0.9765);fill-opacity:1;"/>
<path d="M164.888 80.1148C164.827 80.1021 164.788 80.1148 164.775 80.1528C164.577 80.9552 164.18 81.6022 163.578 82.0874C162.976 82.5758 162.236 82.8169 161.365 82.8169H160.257C159.924 82.8169 159.674 82.7915 159.501 82.7439C159.328 82.6964 159.213 82.5917 159.152 82.4331C159.091 82.2745 159.059 82.043 159.059 81.7386V73.3722C159.059 73.0202 159.091 72.7506 159.162 72.5698C159.229 72.3859 159.363 72.2622 159.568 72.1956C159.77 72.129 160.068 72.0941 160.462 72.0941C160.497 72.0941 160.516 72.0592 160.516 71.9831C160.516 71.907 160.497 71.8721 160.462 71.8721C160.167 71.8721 159.825 71.8816 159.437 71.9006C159.05 71.9196 158.627 71.9292 158.175 71.9292C157.746 71.9292 157.333 71.9196 156.939 71.9006C156.545 71.8816 156.203 71.8721 155.905 71.8721C155.879 71.8721 155.87 71.907 155.87 71.9831C155.87 72.0592 155.882 72.0941 155.905 72.0941C156.299 72.0941 156.597 72.129 156.798 72.1956C157 72.2622 157.138 72.3859 157.205 72.5603C157.272 72.7379 157.307 73.0011 157.307 73.3532V81.8083C157.307 82.1604 157.272 82.43 157.205 82.6107C157.138 82.7947 157.003 82.9152 156.798 82.9754C156.597 83.0357 156.296 83.0674 155.905 83.0674C155.879 83.0674 155.87 83.1023 155.87 83.1784C155.87 83.2545 155.882 83.2894 155.905 83.2894H164.535C164.721 83.2894 164.811 83.1975 164.811 83.0167C164.811 82.5663 164.83 82.0747 164.865 81.5451C164.9 81.0155 164.939 80.5619 164.977 80.1845C164.977 80.1496 164.945 80.1243 164.884 80.1116L164.888 80.1148Z" fill="#F7F8F9" style="fill:#F7F8F9;fill:color(display-p3 0.9686 0.9725 0.9765);fill-opacity:1;"/>
<path d="M174.959 80.1148C174.898 80.1021 174.86 80.1148 174.847 80.1528C174.648 80.9552 174.251 81.6022 173.649 82.0874C173.047 82.5758 172.308 82.8169 171.436 82.8169H170.328C169.995 82.8169 169.746 82.7915 169.573 82.7439C169.4 82.6964 169.284 82.5917 169.224 82.4331C169.163 82.2745 169.131 82.043 169.131 81.7386V73.3722C169.131 73.0202 169.163 72.7506 169.233 72.5698C169.3 72.3859 169.435 72.2622 169.64 72.1956C169.842 72.129 170.139 72.0941 170.533 72.0941C170.569 72.0941 170.588 72.0592 170.588 71.9831C170.588 71.907 170.569 71.8721 170.533 71.8721C170.239 71.8721 169.896 71.8816 169.509 71.9006C169.121 71.9196 168.698 71.9292 168.247 71.9292C167.818 71.9292 167.405 71.9196 167.011 71.9006C166.617 71.8816 166.274 71.8721 165.976 71.8721C165.951 71.8721 165.941 71.907 165.941 71.9831C165.941 72.0592 165.954 72.0941 165.976 72.0941C166.37 72.0941 166.668 72.129 166.87 72.1956C167.072 72.2622 167.209 72.3859 167.277 72.5603C167.344 72.7379 167.379 73.0011 167.379 73.3532V81.8083C167.379 82.1604 167.344 82.43 167.277 82.6107C167.209 82.7947 167.075 82.9152 166.87 82.9754C166.668 83.0357 166.367 83.0674 165.976 83.0674C165.951 83.0674 165.941 83.1023 165.941 83.1784C165.941 83.2545 165.954 83.2894 165.976 83.2894H174.607C174.793 83.2894 174.882 83.1975 174.882 83.0167C174.882 82.5663 174.901 82.0747 174.937 81.5451C174.972 81.0155 175.01 80.5619 175.049 80.1845C175.049 80.1496 175.017 80.1243 174.956 80.1116L174.959 80.1148Z" fill="#F7F8F9" style="fill:#F7F8F9;fill:color(display-p3 0.9686 0.9725 0.9765);fill-opacity:1;"/>
<path d="M186.907 80.0514C186.846 80.0324 186.801 80.0514 186.779 80.0958C186.337 81.1551 185.799 81.9321 185.165 82.4237C184.531 82.9153 183.81 83.1627 182.997 83.1627C182.334 83.1627 181.719 83.0041 181.152 82.6869C180.586 82.3698 180.096 81.9321 179.676 81.3708C179.257 80.8094 178.933 80.1593 178.699 79.4171C178.466 78.675 178.35 77.8758 178.35 77.0258C178.35 76.0522 178.514 75.1959 178.84 74.4601C179.167 73.7243 179.635 73.1471 180.243 72.7348C180.851 72.3225 181.591 72.1132 182.465 72.1132C183.436 72.1132 184.281 72.3637 185.002 72.8617C185.722 73.3596 186.26 74.0859 186.616 75.0341C186.641 75.0817 186.68 75.0976 186.734 75.0785C186.789 75.0595 186.817 75.0405 186.817 75.0151L186.597 72.6397C186.584 72.5065 186.561 72.4113 186.532 72.3574C186.5 72.3035 186.43 72.2559 186.321 72.221C185.966 72.0371 185.485 71.9007 184.883 71.8087C184.281 71.7168 183.714 71.6724 183.186 71.6724C182.302 71.6724 181.45 71.8087 180.63 72.0847C179.814 72.3574 179.084 72.7507 178.443 73.2613C177.803 73.7719 177.297 74.3872 176.922 75.1071C176.547 75.827 176.359 76.6294 176.359 77.5174C176.359 78.1993 176.483 78.8938 176.736 79.6011C176.989 80.3083 177.38 80.9553 177.908 81.5452C178.437 82.1351 179.125 82.6108 179.974 82.9692C180.823 83.3276 181.838 83.5083 183.016 83.5083C183.57 83.5083 184.134 83.4576 184.714 83.3529C185.29 83.2483 185.863 83.0897 186.43 82.8677C186.542 82.8201 186.613 82.7726 186.641 82.7313C186.673 82.6901 186.699 82.595 186.725 82.4491L187 80.1117C187 80.0863 186.968 80.0673 186.907 80.0483V80.0514Z" fill="#F7F8F9" style="fill:#F7F8F9;fill:color(display-p3 0.9686 0.9725 0.9765);fill-opacity:1;"/>
<path d="M95.8346 36.9255C95.5431 36.9255 95.2709 36.8367 95.0115 36.6623C94.7522 36.4879 94.48 36.1802 94.1885 35.7394C93.8971 35.3017 93.5673 34.696 93.1958 33.9316L87.2714 22.0988C87.2554 22.0513 87.1913 22.0259 87.0792 22.0259C86.9672 22.0259 86.8935 22.0513 86.8615 22.0988L81.6608 33.716C81.2893 34.5628 80.9499 35.2224 80.6457 35.6918C80.3382 36.1644 80.0276 36.4847 79.7138 36.6623C79.3999 36.8367 79.0252 36.9255 78.5897 36.9255C78.5257 36.9255 78.4937 36.9731 78.4937 37.0682C78.4937 37.1634 78.5257 37.211 78.5897 37.211C79.1213 37.211 79.5697 37.1951 79.9315 37.1634C80.2934 37.1317 80.7834 37.1158 81.395 37.1158C82.0067 37.1158 82.5158 37.1317 82.9193 37.1634C83.3228 37.1951 83.7648 37.211 84.2483 37.211C84.3284 37.211 84.37 37.1634 84.37 37.0682C84.37 36.9731 84.3284 36.9255 84.2483 36.9255C83.2972 36.9255 82.6247 36.6686 82.2276 36.158C81.8337 35.6474 81.8433 34.9053 82.2629 33.9316L84.1202 29.7865H88.5107L91.1142 35.0321C91.5017 35.7838 91.6234 36.2849 91.4761 36.5418C91.332 36.7987 90.8965 36.9255 90.1695 36.9255C90.1055 36.9255 90.0735 36.9731 90.0735 37.0682C90.0735 37.1634 90.1055 37.211 90.1695 37.211C90.6531 37.211 91.0918 37.1951 91.4889 37.1634C91.8828 37.1317 92.3472 37.1158 92.8788 37.1158C93.3463 37.1158 93.8331 37.1317 94.3423 37.1634C94.8514 37.1951 95.3446 37.211 95.8314 37.211C95.8954 37.211 95.9274 37.1634 95.9274 37.0682C95.9274 36.9731 95.8954 36.9255 95.8314 36.9255H95.8346ZM84.402 29.1649L86.205 25.1403L88.2033 29.1649H84.402Z" fill="#F7F8F9" style="fill:#F7F8F9;fill:color(display-p3 0.9686 0.9725 0.9765);fill-opacity:1;"/>
<path d="M108.388 33.0435C108.308 33.0277 108.26 33.0435 108.244 33.0911C107.984 34.144 107.462 34.9908 106.671 35.6315C105.88 36.2689 104.913 36.5893 103.77 36.5893H102.319C101.884 36.5893 101.554 36.5575 101.327 36.4941C101.099 36.4307 100.949 36.2943 100.866 36.0882C100.782 35.882 100.744 35.5776 100.744 35.178V24.2078C100.744 23.7447 100.789 23.3927 100.875 23.1548C100.965 22.9138 101.141 22.7521 101.407 22.6633C101.673 22.5745 102.063 22.5332 102.579 22.5332C102.627 22.5332 102.652 22.4857 102.652 22.3905C102.652 22.2954 102.627 22.2478 102.579 22.2478C102.191 22.2478 101.743 22.2605 101.237 22.2827C100.731 22.3049 100.177 22.3176 99.5814 22.3176C99.0178 22.3176 98.4766 22.3049 97.961 22.2827C97.4454 22.2573 96.9939 22.2478 96.6064 22.2478C96.5744 22.2478 96.5583 22.2954 96.5583 22.3905C96.5583 22.4857 96.5744 22.5332 96.6064 22.5332C97.122 22.5332 97.5127 22.5776 97.7785 22.6633C98.0443 22.7521 98.2204 22.9106 98.3101 23.1422C98.3997 23.3737 98.4414 23.7225 98.4414 24.1856V35.2763C98.4414 35.7393 98.3965 36.0913 98.3101 36.3292C98.2204 36.5702 98.0443 36.7288 97.7785 36.8081C97.5127 36.8874 97.122 36.9286 96.6064 36.9286C96.5744 36.9286 96.5583 36.9762 96.5583 37.0713C96.5583 37.1665 96.5744 37.214 96.6064 37.214H107.927C108.167 37.214 108.289 37.0935 108.289 36.8557C108.289 36.2658 108.314 35.622 108.362 34.9274C108.41 34.2328 108.458 33.6366 108.506 33.1419C108.506 33.0943 108.465 33.0626 108.385 33.0467L108.388 33.0435Z" fill="#F7F8F9" style="fill:#F7F8F9;fill:color(display-p3 0.9686 0.9725 0.9765);fill-opacity:1;"/>
<path d="M187 90.917H0V92.379H187V90.917Z" fill="#F7F8F9" style="fill:#F7F8F9;fill:color(display-p3 0.9686 0.9725 0.9765);fill-opacity:1;"/>
<path d="M53.1468 105.217H52.4391C52.3558 105.217 52.2917 105.198 52.2405 105.157C52.1893 105.116 52.1508 105.065 52.1284 105.002L51.4944 103.381H48.4553L47.8212 105.002C47.7988 105.059 47.7604 105.106 47.7091 105.151C47.6547 105.195 47.5906 105.217 47.5106 105.217H46.8029L49.5121 98.5095H50.444L53.1532 105.217H53.1468ZM48.7083 102.728H51.2382L50.175 100C50.1045 99.832 50.0373 99.6227 49.97 99.369C49.9348 99.4959 49.9028 99.6132 49.8675 99.721C49.8323 99.8289 49.8035 99.924 49.7715 100.003L48.7083 102.728Z" fill="#F7F8F9" style="fill:#F7F8F9;fill:color(display-p3 0.9686 0.9725 0.9765);fill-opacity:1;"/>
<path d="M58.2738 98.5095V99.2739H56.0866V105.217H55.1707V99.2739H52.9739V98.5095H58.277H58.2738Z" fill="#F7F8F9" style="fill:#F7F8F9;fill:color(display-p3 0.9686 0.9725 0.9765);fill-opacity:1;"/>
<path d="M64.1342 98.5095V99.2739H61.9469V105.217H61.0311V99.2739H58.8342V98.5095H64.1374H64.1342Z" fill="#F7F8F9" style="fill:#F7F8F9;fill:color(display-p3 0.9686 0.9725 0.9765);fill-opacity:1;"/>
<path d="M71.2114 101.868C71.2114 102.369 71.1314 102.832 70.9712 103.251C70.8111 103.669 70.5838 104.031 70.2891 104.335C69.9945 104.637 69.6423 104.871 69.2324 105.04C68.8224 105.208 68.3677 105.29 67.8681 105.29C67.3686 105.29 66.917 105.208 66.5071 105.04C66.0972 104.871 65.745 104.637 65.4535 104.335C65.1621 104.034 64.9348 103.673 64.7714 103.251C64.6113 102.832 64.5312 102.369 64.5312 101.868C64.5312 101.367 64.6113 100.904 64.7714 100.485C64.9315 100.067 65.1589 99.7051 65.4535 99.4007C65.7482 99.0962 66.0972 98.8615 66.5071 98.6902C66.917 98.5221 67.3718 98.4365 67.8681 98.4365C68.3645 98.4365 68.8192 98.5221 69.2324 98.6902C69.6423 98.8583 69.9945 99.0962 70.2891 99.4007C70.5806 99.7051 70.8079 100.067 70.9712 100.485C71.1314 100.904 71.2114 101.367 71.2114 101.868ZM70.2699 101.868C70.2699 101.456 70.2123 101.088 70.1002 100.758C69.9881 100.431 69.8248 100.152 69.6198 99.9271C69.4117 99.7019 69.1587 99.5275 68.8641 99.4038C68.5695 99.2833 68.2364 99.2199 67.8713 99.2199C67.5063 99.2199 67.1796 99.2801 66.885 99.4038C66.5904 99.5243 66.3374 99.6988 66.126 99.9271C65.9179 100.152 65.7546 100.431 65.6425 100.758C65.5304 101.085 65.4728 101.456 65.4728 101.868C65.4728 102.28 65.5304 102.648 65.6425 102.975C65.7546 103.302 65.9179 103.577 66.126 103.803C66.3342 104.028 66.5872 104.202 66.885 104.323C67.1796 104.443 67.5095 104.504 67.8713 104.504C68.2332 104.504 68.5663 104.443 68.8641 104.323C69.1587 104.202 69.4117 104.031 69.6198 103.803C69.828 103.577 69.9881 103.302 70.1002 102.975C70.2123 102.648 70.2699 102.28 70.2699 101.868Z" fill="#F7F8F9" style="fill:#F7F8F9;fill:color(display-p3 0.9686 0.9725 0.9765);fill-opacity:1;"/>
<path d="M73.7541 102.42V105.22H72.8414V98.5127H74.7565C75.1856 98.5127 75.5538 98.5571 75.8677 98.6427C76.1815 98.7284 76.4377 98.852 76.6395 99.0138C76.8412 99.1755 76.9917 99.3722 77.091 99.6005C77.1903 99.8289 77.2383 100.086 77.2383 100.371C77.2383 100.609 77.1999 100.831 77.1262 101.037C77.0494 101.243 76.9405 101.427 76.7964 101.592C76.6523 101.757 76.4793 101.897 76.2712 102.011C76.0662 102.125 75.8325 102.214 75.5699 102.274C75.6819 102.341 75.7844 102.436 75.8709 102.56L77.8468 105.224H77.0333C76.8668 105.224 76.7419 105.16 76.6651 105.033L74.907 102.636C74.8525 102.56 74.7949 102.506 74.7308 102.474C74.6668 102.442 74.5739 102.423 74.4458 102.423H73.7509L73.7541 102.42ZM73.7541 101.76H74.7148C74.9838 101.76 75.2176 101.729 75.4226 101.665C75.6243 101.602 75.7972 101.51 75.9317 101.392C76.0694 101.275 76.1719 101.136 76.2424 100.974C76.3128 100.812 76.3448 100.631 76.3448 100.435C76.3448 100.035 76.2103 99.7337 75.9445 99.5307C75.6787 99.3278 75.2816 99.2263 74.7565 99.2263H73.7541V101.757V101.76Z" fill="#F7F8F9" style="fill:#F7F8F9;fill:color(display-p3 0.9686 0.9725 0.9765);fill-opacity:1;"/>
<path d="M79.7714 98.5412C79.8098 98.5603 79.8546 98.6015 79.9059 98.6649L83.8288 103.72C83.8192 103.638 83.8128 103.562 83.8096 103.482C83.8064 103.406 83.8064 103.333 83.8064 103.26V98.5095H84.6102V105.217H84.1458C84.0722 105.217 84.0113 105.205 83.9633 105.179C83.9152 105.154 83.8672 105.113 83.8192 105.052L79.9027 100.003C79.9091 100.083 79.9123 100.159 79.9155 100.232C79.9187 100.305 79.9187 100.374 79.9187 100.438V105.217H79.1149V98.5095H79.5888C79.6721 98.5095 79.7297 98.519 79.7714 98.5412Z" fill="#F7F8F9" style="fill:#F7F8F9;fill:color(display-p3 0.9686 0.9725 0.9765);fill-opacity:1;"/>
<path d="M90.7203 98.5095V99.2485H87.4699V101.475H90.1022V102.185H87.4699V104.475H90.7203V105.214H86.5476V98.5063H90.7203V98.5095Z" fill="#F7F8F9" style="fill:#F7F8F9;fill:color(display-p3 0.9686 0.9725 0.9765);fill-opacity:1;"/>
<path d="M94.9315 102.55V105.217H94.0188V102.55L91.537 98.5095H92.3408C92.4241 98.5095 92.4881 98.5286 92.5361 98.5698C92.5842 98.611 92.6258 98.6618 92.6578 98.7188L94.2078 101.326C94.2718 101.434 94.3231 101.538 94.3647 101.633C94.4063 101.729 94.4448 101.827 94.48 101.919C94.5152 101.824 94.5536 101.725 94.5921 101.63C94.6337 101.535 94.6849 101.434 94.749 101.326L96.2957 98.7188C96.3246 98.6681 96.363 98.6205 96.411 98.5761C96.4591 98.5317 96.5231 98.5095 96.6032 98.5095H97.4166L94.9315 102.55Z" fill="#F7F8F9" style="fill:#F7F8F9;fill:color(display-p3 0.9686 0.9725 0.9765);fill-opacity:1;"/>
<path d="M102.018 99.5592C101.99 99.6068 101.961 99.6417 101.929 99.6639C101.897 99.6861 101.855 99.6988 101.807 99.6988C101.753 99.6988 101.692 99.6734 101.621 99.6195C101.551 99.5656 101.461 99.5085 101.352 99.4451C101.243 99.3816 101.112 99.3214 100.958 99.2706C100.805 99.2167 100.619 99.1913 100.404 99.1913C100.199 99.1913 100.017 99.2199 99.86 99.2738C99.7031 99.3277 99.5718 99.4038 99.4661 99.4958C99.3604 99.591 99.2804 99.6988 99.2259 99.8256C99.1715 99.9525 99.1459 100.089 99.1459 100.235C99.1459 100.422 99.1907 100.577 99.2836 100.701C99.3764 100.825 99.4981 100.929 99.6518 101.018C99.8056 101.107 99.9785 101.18 100.171 101.246C100.363 101.31 100.561 101.376 100.766 101.446C100.968 101.516 101.167 101.592 101.362 101.678C101.557 101.763 101.73 101.871 101.881 102.004C102.031 102.138 102.156 102.296 102.249 102.487C102.342 102.677 102.387 102.911 102.387 103.187C102.387 103.479 102.335 103.755 102.236 104.015C102.134 104.272 101.99 104.497 101.794 104.688C101.599 104.878 101.362 105.027 101.08 105.138C100.798 105.246 100.478 105.303 100.119 105.303C99.6807 105.303 99.2836 105.224 98.9217 105.065C98.5598 104.906 98.2524 104.694 97.9962 104.427L98.262 103.996C98.2876 103.961 98.3165 103.933 98.3549 103.911C98.3901 103.888 98.4317 103.876 98.4766 103.876C98.5438 103.876 98.6175 103.911 98.7039 103.98C98.7904 104.05 98.8961 104.129 99.0242 104.212C99.1523 104.294 99.306 104.374 99.4885 104.443C99.6711 104.513 99.892 104.548 100.151 104.548C100.369 104.548 100.561 104.519 100.734 104.459C100.907 104.399 101.048 104.316 101.167 104.209C101.285 104.101 101.375 103.971 101.439 103.822C101.503 103.673 101.535 103.505 101.535 103.321C101.535 103.118 101.49 102.953 101.397 102.823C101.304 102.693 101.183 102.585 101.032 102.496C100.882 102.407 100.709 102.334 100.513 102.274C100.321 102.214 100.123 102.15 99.9176 102.087C99.7159 102.023 99.5173 101.951 99.322 101.865C99.1267 101.779 98.9569 101.671 98.8032 101.538C98.6527 101.405 98.531 101.237 98.4381 101.034C98.3453 100.831 98.3004 100.584 98.3004 100.289C98.3004 100.051 98.3453 99.8225 98.4381 99.6005C98.531 99.3785 98.6655 99.1818 98.8416 99.0106C99.0178 98.8393 99.2355 98.7029 99.4949 98.5983C99.7543 98.4968 100.052 98.4429 100.392 98.4429C100.769 98.4429 101.115 98.5031 101.426 98.6205C101.737 98.7378 102.009 98.9122 102.243 99.1343L102.022 99.5656L102.018 99.5592Z" fill="#F7F8F9" style="fill:#F7F8F9;fill:color(display-p3 0.9686 0.9725 0.9765);fill-opacity:1;"/>
<path d="M111.523 105.217H110.815C110.732 105.217 110.668 105.198 110.617 105.157C110.565 105.116 110.527 105.065 110.505 105.002L109.871 103.381H106.832L106.197 105.002C106.175 105.059 106.137 105.106 106.085 105.151C106.031 105.195 105.967 105.217 105.887 105.217H105.179L107.888 98.5095H108.82L111.529 105.217H111.523ZM107.084 102.728H109.614L108.551 100C108.481 99.832 108.413 99.6227 108.346 99.369C108.311 99.4959 108.279 99.6132 108.244 99.721C108.209 99.8289 108.18 99.924 108.148 100.003L107.084 102.728Z" fill="#F7F8F9" style="fill:#F7F8F9;fill:color(display-p3 0.9686 0.9725 0.9765);fill-opacity:1;"/>
<path d="M116.65 98.5095V99.2739H114.463V105.217H113.547V99.2739H111.35V98.5095H116.653H116.65Z" fill="#F7F8F9" style="fill:#F7F8F9;fill:color(display-p3 0.9686 0.9725 0.9765);fill-opacity:1;"/>
<path d="M120.922 104.456H123.852V105.22H120.006V98.5127H120.922V104.456Z" fill="#F7F8F9" style="fill:#F7F8F9;fill:color(display-p3 0.9686 0.9725 0.9765);fill-opacity:1;"/>
<path d="M130.721 105.217H130.014C129.93 105.217 129.866 105.198 129.815 105.157C129.764 105.116 129.725 105.065 129.703 105.002L129.069 103.381H126.03L125.396 105.002C125.373 105.059 125.335 105.106 125.284 105.151C125.229 105.195 125.165 105.217 125.085 105.217H124.377L127.087 98.5095H128.019L130.728 105.217H130.721ZM126.283 102.728H128.813L127.75 100C127.679 99.832 127.612 99.6227 127.545 99.369C127.509 99.4959 127.477 99.6132 127.442 99.721C127.407 99.8289 127.378 99.924 127.346 100.003L126.283 102.728Z" fill="#F7F8F9" style="fill:#F7F8F9;fill:color(display-p3 0.9686 0.9725 0.9765);fill-opacity:1;"/>
<path d="M130.705 98.5095H131.468C131.551 98.5095 131.618 98.5286 131.669 98.5698C131.724 98.611 131.759 98.6618 131.778 98.7252L133.178 103.387C133.203 103.473 133.226 103.562 133.245 103.66C133.264 103.758 133.287 103.857 133.303 103.964C133.325 103.86 133.347 103.755 133.37 103.657C133.392 103.559 133.418 103.47 133.447 103.387L135.038 98.7252C135.057 98.6713 135.093 98.6237 135.15 98.5793C135.205 98.5349 135.272 98.5127 135.352 98.5127H135.618C135.701 98.5127 135.768 98.5317 135.82 98.573C135.871 98.6142 135.909 98.6649 135.932 98.7284L137.514 103.39C137.571 103.552 137.619 103.739 137.664 103.949C137.683 103.847 137.699 103.746 137.715 103.654C137.731 103.559 137.751 103.473 137.776 103.39L139.179 98.7284C139.195 98.6713 139.23 98.6237 139.285 98.5793C139.339 98.5349 139.406 98.5127 139.486 98.5127H140.2L138.087 105.22H137.264L135.547 100.105C135.512 100.01 135.48 99.8955 135.451 99.7686C135.435 99.832 135.419 99.8923 135.406 99.9494C135.394 100.006 135.378 100.06 135.362 100.105L133.636 105.22H132.813L130.699 98.5127L130.705 98.5095Z" fill="#F7F8F9" style="fill:#F7F8F9;fill:color(display-p3 0.9686 0.9725 0.9765);fill-opacity:1;"/>
</g>
<defs>
<clipPath id="clip0_21_1330">
<rect width="187" height="105.293" fill="white" style="fill:white;fill-opacity:1;"/>
</clipPath>
</defs>
</svg>
