<svg width="103" height="58" viewBox="0 0 103 58" fill="none" xmlns="http://www.w3.org/2000/svg">
<g clip-path="url(#clip0_21_1229)">
<path d="M44.2858 0.422775C44.2858 0.422775 40.0595 1.64392 40.2465 5.40868C44.2717 4.30458 44.2858 0.422775 44.2858 0.422775Z" stroke="#070707" style="stroke:#070707;stroke:color(display-p3 0.0275 0.0275 0.0275);stroke-opacity:1;" stroke-miterlimit="10"/>
<path d="M36.5741 4.06175C36.5741 4.06175 34.2123 6.8447 36.4947 9.76567C38.7155 6.80103 36.5741 4.06175 36.5741 4.06175Z" stroke="#070707" style="stroke:#070707;stroke:color(display-p3 0.0275 0.0275 0.0275);stroke-opacity:1;" stroke-miterlimit="10"/>
<path d="M39.144 1.08662C39.144 1.08662 36.6217 3.41885 38.3997 6.35554C40.8126 3.84162 39.144 1.08662 39.144 1.08662Z" stroke="#070707" style="stroke:#070707;stroke:color(display-p3 0.0275 0.0275 0.0275);stroke-opacity:1;" stroke-miterlimit="10"/>
<path d="M43.2027 5.74061C43.2027 5.74061 38.9588 5.4244 37.9252 8.77862C41.9468 9.12976 43.2027 5.74061 43.2027 5.74061Z" stroke="#070707" style="stroke:#070707;stroke:color(display-p3 0.0275 0.0275 0.0275);stroke-opacity:1;" stroke-miterlimit="10"/>
<path d="M39.3751 9.49313C39.3751 9.49313 35.6868 11.0549 36.2865 14.3375C39.8055 12.9015 39.3751 9.49313 39.3751 9.49313Z" stroke="#070707" style="stroke:#070707;stroke:color(display-p3 0.0275 0.0275 0.0275);stroke-opacity:1;" stroke-miterlimit="10"/>
<path d="M35.4188 12.1643C36.1772 8.47114 33.3832 7.05258 33.3832 7.05258C33.3832 7.05258 32.3337 10.8261 35.4188 12.1643Z" stroke="#070707" style="stroke:#070707;stroke:color(display-p3 0.0275 0.0275 0.0275);stroke-opacity:1;" stroke-miterlimit="10"/>
<path d="M32.0726 15.7421C32.0726 15.7421 32.9793 19.6117 36.3483 19.5995C35.5369 15.9168 32.0726 15.7421 32.0726 15.7421Z" stroke="#070707" style="stroke:#070707;stroke:color(display-p3 0.0275 0.0275 0.0275);stroke-opacity:1;" stroke-miterlimit="10"/>
<path d="M38.8865 23.3642C37.9235 19.7183 34.0482 20.2913 34.0482 20.2913C34.0482 20.2913 35.006 23.5459 38.8865 23.3642Z" stroke="#070707" style="stroke:#070707;stroke:color(display-p3 0.0275 0.0275 0.0275);stroke-opacity:1;" stroke-miterlimit="10"/>
<path d="M40.4122 26.0266C38.1016 23.0323 34.8895 24.3268 34.8895 24.3268C34.8895 24.3268 37.3678 27.4504 40.4122 26.0266Z" stroke="#070707" style="stroke:#070707;stroke:color(display-p3 0.0275 0.0275 0.0275);stroke-opacity:1;" stroke-miterlimit="10"/>
<path d="M41.8869 25.8205C42.7741 22.1553 39.7332 20.5044 39.7332 20.5044C39.7332 20.5044 38.8495 24.3792 41.8869 25.8205Z" stroke="#070707" style="stroke:#070707;stroke:color(display-p3 0.0275 0.0275 0.0275);stroke-opacity:1;" stroke-miterlimit="10"/>
<path d="M47.6724 28.427C46.8222 24.7531 43.1498 24.4194 43.1498 24.4194C43.1498 24.4194 44.3051 28.4724 47.6724 28.427Z" stroke="#070707" style="stroke:#070707;stroke:color(display-p3 0.0275 0.0275 0.0275);stroke-opacity:1;" stroke-miterlimit="10"/>
<path d="M37.5618 28.0392C37.5618 28.0392 40.772 30.1687 43.9029 27.6758C40.8955 25.6108 37.5618 28.0392 37.5618 28.0392Z" stroke="#070707" style="stroke:#070707;stroke:color(display-p3 0.0275 0.0275 0.0275);stroke-opacity:1;" stroke-miterlimit="10"/>
<path d="M38.084 20.6756C39.9555 17.3948 37.4913 14.9769 37.4913 14.9769C37.4913 14.9769 35.5652 18.4604 38.084 20.6756Z" stroke="#070707" style="stroke:#070707;stroke:color(display-p3 0.0275 0.0275 0.0275);stroke-opacity:1;" stroke-miterlimit="10"/>
<path d="M35.6568 16.4584C36.0696 12.7128 32.8417 11.4532 32.8417 11.4532C32.8417 11.4532 32.4589 15.4067 35.6568 16.4584Z" stroke="#070707" style="stroke:#070707;stroke:color(display-p3 0.0275 0.0275 0.0275);stroke-opacity:1;" stroke-miterlimit="10"/>
<path d="M54.7455 33.5596C52.426 29.6813 47.3989 29.7512 47.3989 29.7512L48.8577 30.0167C53.3238 31.2082 54.077 33.8461 54.077 33.8461C54.077 33.8461 54.8795 34.0104 54.7437 33.5596H54.7455Z" stroke="#070707" style="stroke:#070707;stroke:color(display-p3 0.0275 0.0275 0.0275);stroke-opacity:1;" stroke-miterlimit="10"/>
<path d="M41.1161 29.9993C46.0355 32.6582 47.399 29.7512 47.399 29.7512C47.399 29.7512 45.1077 27.1447 41.1161 29.9993Z" stroke="#070707" style="stroke:#070707;stroke:color(display-p3 0.0275 0.0275 0.0275);stroke-opacity:1;" stroke-miterlimit="10"/>
<path d="M58.7161 0.349396C58.7161 0.349396 62.9423 1.57054 62.7553 5.3353C58.7302 4.2312 58.7161 0.349396 58.7161 0.349396Z" stroke="#070707" style="stroke:#070707;stroke:color(display-p3 0.0275 0.0275 0.0275);stroke-opacity:1;" stroke-miterlimit="10"/>
<path d="M66.4261 3.99011C66.4261 3.99011 68.7879 6.77306 66.5054 9.69403C64.2847 6.72939 66.4261 3.99011 66.4261 3.99011Z" stroke="#070707" style="stroke:#070707;stroke:color(display-p3 0.0275 0.0275 0.0275);stroke-opacity:1;" stroke-miterlimit="10"/>
<path d="M63.8578 1.015C63.8578 1.015 66.3802 3.34723 64.6022 6.28392C62.1892 3.77 63.8578 1.015 63.8578 1.015Z" stroke="#070707" style="stroke:#070707;stroke:color(display-p3 0.0275 0.0275 0.0275);stroke-opacity:1;" stroke-miterlimit="10"/>
<path d="M59.7974 5.66723C59.7974 5.66723 64.0413 5.35102 65.0749 8.70524C61.0532 9.05639 59.7974 5.66723 59.7974 5.66723Z" stroke="#070707" style="stroke:#070707;stroke:color(display-p3 0.0275 0.0275 0.0275);stroke-opacity:1;" stroke-miterlimit="10"/>
<path d="M63.6249 9.41975C63.6249 9.41975 67.3132 10.9816 66.7135 14.2642C63.1945 12.8281 63.6249 9.41975 63.6249 9.41975Z" stroke="#070707" style="stroke:#070707;stroke:color(display-p3 0.0275 0.0275 0.0275);stroke-opacity:1;" stroke-miterlimit="10"/>
<path d="M67.5831 12.0909C66.8246 8.39777 69.6186 6.97922 69.6186 6.97922C69.6186 6.97922 70.6681 10.7527 67.5831 12.0909Z" stroke="#070707" style="stroke:#070707;stroke:color(display-p3 0.0275 0.0275 0.0275);stroke-opacity:1;" stroke-miterlimit="10"/>
<path d="M70.9292 15.6687C70.9292 15.6687 70.0226 19.5383 66.6536 19.5261C67.4649 15.8434 70.9292 15.6687 70.9292 15.6687Z" stroke="#070707" style="stroke:#070707;stroke:color(display-p3 0.0275 0.0275 0.0275);stroke-opacity:1;" stroke-miterlimit="10"/>
<path d="M64.1135 23.2908C65.0766 19.6449 68.9518 20.2179 68.9518 20.2179C68.9518 20.2179 67.9941 23.4725 64.1135 23.2908Z" stroke="#070707" style="stroke:#070707;stroke:color(display-p3 0.0275 0.0275 0.0275);stroke-opacity:1;" stroke-miterlimit="10"/>
<path d="M62.5896 25.9533C64.9003 22.9589 68.1123 24.2534 68.1123 24.2534C68.1123 24.2534 65.6341 27.377 62.5896 25.9533Z" stroke="#070707" style="stroke:#070707;stroke:color(display-p3 0.0275 0.0275 0.0275);stroke-opacity:1;" stroke-miterlimit="10"/>
<path d="M61.1132 25.7489C60.2259 22.0837 63.2669 20.4328 63.2669 20.4328C63.2669 20.4328 64.1506 24.3076 61.1132 25.7489Z" stroke="#070707" style="stroke:#070707;stroke:color(display-p3 0.0275 0.0275 0.0275);stroke-opacity:1;" stroke-miterlimit="10"/>
<path d="M55.3276 28.3536C56.1778 24.6797 59.8502 24.346 59.8502 24.346C59.8502 24.346 58.6949 28.399 55.3276 28.3536Z" stroke="#070707" style="stroke:#070707;stroke:color(display-p3 0.0275 0.0275 0.0275);stroke-opacity:1;" stroke-miterlimit="10"/>
<path d="M65.4382 27.9675C65.4382 27.9675 62.2279 30.0971 59.097 27.6042C62.1045 25.5392 65.4382 27.9675 65.4382 27.9675Z" stroke="#070707" style="stroke:#070707;stroke:color(display-p3 0.0275 0.0275 0.0275);stroke-opacity:1;" stroke-miterlimit="10"/>
<path d="M64.9161 20.6022C63.0446 17.3214 65.5088 14.9035 65.5088 14.9035C65.5088 14.9035 67.4349 18.387 64.9161 20.6022Z" stroke="#070707" style="stroke:#070707;stroke:color(display-p3 0.0275 0.0275 0.0275);stroke-opacity:1;" stroke-miterlimit="10"/>
<path d="M67.3449 16.385C66.9322 12.6395 70.1601 11.3799 70.1601 11.3799C70.1601 11.3799 70.5428 15.3333 67.3449 16.385Z" stroke="#070707" style="stroke:#070707;stroke:color(display-p3 0.0275 0.0275 0.0275);stroke-opacity:1;" stroke-miterlimit="10"/>
<path d="M48.2563 33.4863C50.5758 29.6079 55.6028 29.6778 55.6028 29.6778L54.1441 29.9434C49.678 31.1348 48.9248 33.7728 48.9248 33.7728C48.9248 33.7728 48.1222 33.937 48.258 33.4863H48.2563Z" stroke="#070707" style="stroke:#070707;stroke:color(display-p3 0.0275 0.0275 0.0275);stroke-opacity:1;" stroke-miterlimit="10"/>
<path d="M61.8857 29.9276C56.9663 32.5866 55.6028 29.6796 55.6028 29.6796C55.6028 29.6796 57.8941 27.0731 61.8857 29.9276Z" stroke="#070707" style="stroke:#070707;stroke:color(display-p3 0.0275 0.0275 0.0275);stroke-opacity:1;" stroke-miterlimit="10"/>
<path d="M7.28311 45.7606C7.16141 45.7606 7.04675 45.7239 6.93739 45.6505C6.8298 45.5772 6.71338 45.4479 6.59167 45.2627C6.46997 45.0775 6.33062 44.826 6.1754 44.5028L3.68656 39.5326C3.67951 39.5116 3.65305 39.5029 3.60543 39.5029C3.5578 39.5029 3.52781 39.5134 3.5137 39.5326L1.33002 44.4119C1.1748 44.7666 1.03192 45.0443 0.903161 45.2417C0.774398 45.4392 0.643871 45.5754 0.51158 45.6488C0.379289 45.7222 0.222304 45.7589 0.0388603 45.7589C0.0124021 45.7589 -0.00170898 45.7781 -0.00170898 45.82C-0.00170898 45.8619 0.0124021 45.8811 0.0388603 45.8811C0.262873 45.8811 0.449844 45.8742 0.603302 45.8619C0.756759 45.8497 0.959606 45.841 1.21713 45.841C1.47466 45.841 1.68809 45.848 1.85742 45.8619C2.02675 45.8759 2.21372 45.8811 2.41657 45.8811C2.45008 45.8811 2.46772 45.8619 2.46772 45.82C2.46772 45.7781 2.45008 45.7589 2.41657 45.7589C2.01617 45.7589 1.73395 45.6523 1.56814 45.4374C1.40234 45.2225 1.40763 44.9116 1.58402 44.501L2.36365 42.761H4.20691L5.30051 44.964C5.46279 45.2802 5.51394 45.4898 5.45221 45.5981C5.39047 45.7064 5.20879 45.7589 4.90364 45.7589C4.87718 45.7589 4.86307 45.7781 4.86307 45.82C4.86307 45.8619 4.87718 45.8811 4.90364 45.8811C5.10649 45.8811 5.29169 45.8742 5.4575 45.8619C5.6233 45.848 5.81733 45.841 6.04134 45.841C6.23713 45.841 6.44174 45.848 6.65517 45.8619C6.8686 45.8759 7.07674 45.8811 7.27959 45.8811C7.30605 45.8811 7.32016 45.8619 7.32016 45.82C7.32016 45.7781 7.30605 45.7589 7.27959 45.7589L7.28311 45.7606ZM2.48183 42.5007L3.23854 40.8114L4.07815 42.5007H2.48183Z" fill="#070707" style="fill:#070707;fill:color(display-p3 0.0275 0.0275 0.0275);fill-opacity:1;"/>
<path d="M11.1389 42.8117C10.9061 42.637 10.6592 42.4728 10.4016 42.319C10.1653 42.1723 9.93949 42.0203 9.72606 41.8666C9.51263 41.7128 9.33801 41.5399 9.20219 41.3477C9.06637 41.1573 8.99934 40.9302 8.99934 40.6681C8.99934 40.4602 9.03991 40.2838 9.12105 40.1405C9.20219 39.9973 9.31684 39.8837 9.46677 39.8034C9.61494 39.723 9.79133 39.6828 9.99417 39.6828C10.2588 39.6828 10.481 39.7475 10.6644 39.8733C10.8479 39.999 10.9996 40.1545 11.1213 40.3362C11.243 40.5179 11.3383 40.6961 11.4053 40.8743C11.4723 41.0525 11.5235 41.1905 11.557 41.2918C11.5711 41.311 11.5922 41.318 11.6222 41.311C11.6522 41.304 11.6681 41.2883 11.6681 41.2604L11.6469 39.9029C11.6469 39.8628 11.6363 39.8261 11.6169 39.7929C11.5958 39.7597 11.5552 39.7317 11.4952 39.7125C11.333 39.6392 11.1354 39.5815 10.9061 39.5413C10.675 39.5011 10.4493 39.4802 10.2252 39.4802C9.89363 39.4802 9.57084 39.5378 9.25511 39.6514C8.93937 39.7649 8.68185 39.9396 8.47724 40.1755C8.27263 40.4113 8.17209 40.7118 8.17209 41.0804C8.17209 41.3826 8.24088 41.6395 8.38022 41.8491C8.51957 42.0605 8.69596 42.2474 8.91291 42.4081C9.12987 42.5689 9.35565 42.7261 9.59377 42.8816C9.83719 43.0301 10.0718 43.1873 10.294 43.355C10.5163 43.5227 10.7015 43.7184 10.8479 43.9437C10.9943 44.1691 11.0666 44.4381 11.0666 44.7543C11.0666 45.0164 11.0155 45.2225 10.9149 45.3728C10.8144 45.523 10.6838 45.6296 10.5286 45.689C10.3734 45.7501 10.2076 45.7798 10.0312 45.7798C9.78074 45.7798 9.55849 45.7204 9.36623 45.6034C9.17397 45.4863 9.00287 45.3326 8.85294 45.1457C8.70478 44.9587 8.57425 44.7526 8.46136 44.5272C8.35024 44.3019 8.25322 44.0887 8.17209 43.8878C8.16503 43.8616 8.14386 43.8494 8.10682 43.8529C8.06978 43.8564 8.05391 43.8739 8.06096 43.9088L8.1227 45.4287C8.12975 45.4828 8.1421 45.523 8.15797 45.5492C8.17561 45.5754 8.19678 45.5999 8.22324 45.6191C8.33083 45.6855 8.47194 45.7501 8.6448 45.8095C8.81766 45.8707 9.00287 45.9161 9.20395 45.951C9.40327 45.9842 9.59554 46.0017 9.77722 46.0017C10.2111 46.0017 10.5886 45.9266 10.9096 45.7746C11.2307 45.6243 11.4829 45.4164 11.6663 45.1509C11.8498 44.8854 11.9397 44.5796 11.9397 44.2302C11.9397 43.9088 11.8639 43.6345 11.7104 43.4109C11.5587 43.1855 11.3647 42.9864 11.1319 42.8117H11.1389Z" fill="#070707" style="fill:#070707;fill:color(display-p3 0.0275 0.0275 0.0275);fill-opacity:1;"/>
<path d="M18.609 39.302C18.5755 39.302 18.5543 39.316 18.5473 39.3422C18.5138 39.4487 18.4344 39.5186 18.3092 39.5483C18.1839 39.578 17.9987 39.5937 17.7553 39.5937C17.4907 39.5937 17.2191 39.599 16.9369 39.6095C16.6564 39.6199 16.2754 39.6252 15.7939 39.6252C15.0142 39.6252 14.3351 39.6147 13.7531 39.5955C13.6913 39.5955 13.6172 39.5902 13.529 39.5798C13.4408 39.5693 13.3615 39.5501 13.2909 39.5186C13.2204 39.4872 13.1851 39.44 13.1851 39.3736C13.1851 39.3404 13.1657 39.3229 13.1286 39.3229C13.0916 39.3229 13.0722 39.3404 13.0722 39.3736C13.0722 39.4872 13.0669 39.6374 13.0563 39.8208C13.0457 40.006 13.0334 40.1947 13.0158 40.3886C12.9981 40.5825 12.984 40.7625 12.9699 40.9267C12.9558 41.0909 12.9434 41.2202 12.9293 41.3145C12.9293 41.3285 12.9487 41.3355 12.9858 41.339C13.0228 41.3425 13.0422 41.3337 13.0422 41.3145C13.1904 40.8184 13.3967 40.4428 13.656 40.1877C13.9171 39.9326 14.254 39.8051 14.6667 39.8051C14.8502 39.8051 14.9878 39.8226 15.083 39.8558C15.1783 39.889 15.24 39.9484 15.2718 40.0322C15.3017 40.1161 15.3176 40.2419 15.3176 40.4096V45.067C15.3176 45.261 15.2947 45.4095 15.2524 45.509C15.2083 45.6104 15.1218 45.6767 14.9931 45.7099C14.8643 45.7431 14.672 45.7606 14.4145 45.7606C14.4004 45.7606 14.3933 45.7798 14.3933 45.8217C14.3933 45.8637 14.4004 45.8829 14.4145 45.8829C14.6103 45.8829 14.8237 45.8794 15.0548 45.8724C15.2841 45.8654 15.5328 45.8619 15.7956 45.8619C16.0726 45.8619 16.3283 45.8654 16.5629 45.8724C16.7957 45.8794 17.0039 45.8829 17.1873 45.8829C17.2085 45.8829 17.2173 45.8637 17.2173 45.8217C17.2173 45.7798 17.2067 45.7606 17.1873 45.7606C16.9298 45.7606 16.7393 45.7431 16.6141 45.7099C16.4888 45.6767 16.4042 45.6086 16.3601 45.509C16.316 45.4077 16.2948 45.261 16.2948 45.067V40.4288C16.2948 40.2611 16.3124 40.1318 16.346 40.041C16.3795 39.9501 16.4447 39.889 16.5382 39.854C16.6335 39.8208 16.7711 39.8034 16.9545 39.8034C17.3743 39.8034 17.7094 39.9222 17.9599 40.1598C18.2104 40.3973 18.3727 40.7817 18.4467 41.311C18.4538 41.325 18.475 41.332 18.512 41.332C18.549 41.332 18.5684 41.325 18.5684 41.311C18.5684 41.2237 18.572 41.0944 18.579 40.9232C18.5861 40.752 18.5931 40.5651 18.6002 40.3607C18.6072 40.1563 18.6178 39.9623 18.6302 39.7772C18.6443 39.592 18.6531 39.447 18.6602 39.3404C18.6602 39.3142 18.6425 39.3002 18.609 39.3002V39.302Z" fill="#070707" style="fill:#070707;fill:color(display-p3 0.0275 0.0275 0.0275);fill-opacity:1;"/>
<path d="M25.3187 45.4287C25.0171 45.2068 24.6714 44.8452 24.2833 44.342C23.9076 43.8581 23.4579 43.2117 22.9357 42.4099C23.0627 42.3365 23.1827 42.2544 23.2938 42.1583C23.4967 41.9836 23.6589 41.7827 23.7806 41.5539C23.9024 41.3267 23.9641 41.0839 23.9641 40.8289C23.9641 40.4323 23.8018 40.1231 23.4773 39.8977C23.1527 39.6723 22.6888 39.5605 22.0856 39.5605C21.8827 39.5605 21.6622 39.571 21.4259 39.5902C21.1895 39.6095 20.9725 39.6199 20.775 39.6199C20.5386 39.6199 20.3129 39.6147 20.0994 39.6042C19.886 39.5937 19.6955 39.5885 19.5262 39.5885C19.5121 39.5885 19.505 39.6077 19.505 39.6496C19.505 39.6916 19.5121 39.7108 19.5262 39.7108C19.7502 39.7108 19.916 39.73 20.0236 39.7667C20.1312 39.8034 20.2053 39.8715 20.2423 39.9676C20.2793 40.0654 20.2987 40.2104 20.2987 40.4043V45.0618C20.2987 45.2557 20.2776 45.4042 20.237 45.5038C20.1964 45.6051 20.1224 45.6715 20.013 45.7047C19.9036 45.7379 19.7396 45.7554 19.5156 45.7554C19.4944 45.7554 19.4856 45.7746 19.4856 45.8165C19.4856 45.8584 19.4962 45.8776 19.5156 45.8776C19.6849 45.8776 19.8772 45.8742 20.0941 45.8672C20.3111 45.8602 20.5369 45.8567 20.775 45.8567C21.0255 45.8567 21.2565 45.8602 21.4664 45.8672C21.6763 45.8742 21.8651 45.8776 22.0344 45.8776C22.0556 45.8776 22.0644 45.8584 22.0644 45.8165C22.0644 45.7746 22.0538 45.7554 22.0344 45.7554C21.8174 45.7554 21.6534 45.7379 21.5423 45.7047C21.4312 45.6715 21.3571 45.6034 21.3236 45.5038C21.29 45.4025 21.2724 45.2557 21.2724 45.0618V42.7069C21.3465 42.7139 21.4312 42.7173 21.5264 42.7173H21.791C21.9092 42.7173 22.0238 42.7069 22.1385 42.6876C22.5212 43.3253 22.8722 43.8791 23.188 44.342C23.5231 44.8347 23.8089 45.2138 24.047 45.4793C24.2833 45.7449 24.4527 45.8759 24.555 45.8759H26.1901C26.2042 45.8759 26.2095 45.8567 26.2095 45.8148C26.2095 45.7728 26.2024 45.7536 26.1901 45.7536C25.9132 45.7536 25.6221 45.6436 25.3223 45.4217L25.3187 45.4287ZM21.5758 42.4605C21.4682 42.4536 21.3659 42.4431 21.2706 42.4308V40.4288C21.2706 40.2471 21.2918 40.1091 21.3324 40.0113C21.3729 39.9134 21.44 39.847 21.5352 39.8104C21.6305 39.7737 21.7557 39.7545 21.9109 39.7545C22.1138 39.7545 22.2937 39.7946 22.4489 39.875C22.6041 39.9554 22.7276 40.1021 22.8193 40.3117C22.911 40.5214 22.9569 40.8201 22.9569 41.2027C22.9569 41.6849 22.874 42.0168 22.7082 42.1985C22.5424 42.3802 22.2602 42.4693 21.8598 42.4693C21.7786 42.4693 21.6834 42.4658 21.5758 42.4588V42.4605Z" fill="#070707" style="fill:#070707;fill:color(display-p3 0.0275 0.0275 0.0275);fill-opacity:1;"/>
<path d="M32.0744 39.6077C31.9015 39.6182 31.7269 39.6234 31.5505 39.6234C31.3477 39.6234 31.1589 39.6182 30.9861 39.6077C30.8132 39.5972 30.6421 39.592 30.4728 39.592C30.4587 39.592 30.4516 39.6112 30.4516 39.6531C30.4516 39.6951 30.4587 39.7143 30.4728 39.7143C30.7709 39.7143 30.9984 39.8121 31.1589 40.006C31.3177 40.1999 31.3971 40.4725 31.3971 40.8201V43.6467C31.3971 44.2896 31.2348 44.7893 30.9102 45.1404C30.5857 45.4916 30.1341 45.668 29.5591 45.668C28.9841 45.668 28.5043 45.4776 28.1621 45.095C27.8199 44.7124 27.6488 44.1132 27.6488 43.2939V40.427C27.6488 40.2331 27.6682 40.0846 27.7053 39.9851C27.7423 39.8837 27.8146 39.8139 27.924 39.7737C28.0316 39.7335 28.1974 39.7125 28.4214 39.7125C28.4426 39.7125 28.4514 39.6933 28.4514 39.6514C28.4514 39.6095 28.4408 39.5902 28.4214 39.5902C28.2521 39.5902 28.0616 39.5955 27.8534 39.606C27.6435 39.6164 27.4125 39.6217 27.162 39.6217C26.9256 39.6217 26.6999 39.6164 26.4864 39.606C26.273 39.5955 26.0825 39.5902 25.9132 39.5902C25.8938 39.5902 25.8832 39.6095 25.8832 39.6514C25.8832 39.6933 25.8938 39.7125 25.9132 39.7125C26.1301 39.7125 26.2942 39.7317 26.4053 39.7684C26.5164 39.8051 26.5923 39.8733 26.6293 39.9693C26.6663 40.0672 26.6857 40.2122 26.6857 40.4061V43.645C26.6857 44.1342 26.7916 44.5569 27.005 44.9133C27.2184 45.268 27.5183 45.5422 27.9046 45.7327C28.2909 45.9231 28.7301 46.0192 29.2257 46.0192C29.7214 46.0192 30.1641 45.9213 30.5363 45.7274C30.9085 45.5335 31.1977 45.2575 31.4041 44.9028C31.6105 44.5482 31.7146 44.1254 31.7146 43.6345V40.8184C31.7146 40.469 31.7851 40.1982 31.928 40.0043C32.0709 39.8104 32.2772 39.7125 32.5471 39.7125C32.5612 39.7125 32.5665 39.6933 32.5665 39.6514C32.5665 39.6095 32.5595 39.5902 32.5471 39.5902C32.4042 39.5902 32.2473 39.5955 32.0744 39.606V39.6077Z" fill="#070707" style="fill:#070707;fill:color(display-p3 0.0275 0.0275 0.0275);fill-opacity:1;"/>
<path d="M41.1601 45.7606C40.9432 45.7606 40.7791 45.7431 40.668 45.7099C40.5569 45.6767 40.4811 45.6086 40.444 45.509C40.407 45.4077 40.3805 45.261 40.3682 45.067L40.1442 40.469C40.13 40.1947 40.1988 39.999 40.347 39.8855C40.4952 39.7719 40.7262 39.7143 41.0384 39.7143C41.0578 39.7143 41.0684 39.6951 41.0684 39.6531C41.0684 39.6112 41.0578 39.592 41.0384 39.592C40.9026 39.592 40.765 39.5955 40.6222 39.6025C40.4793 39.6095 40.3064 39.613 40.1036 39.613C40.0013 39.613 39.9148 39.6095 39.8443 39.6025C39.7737 39.5955 39.7067 39.592 39.6467 39.592C39.5797 39.592 39.5215 39.6112 39.4739 39.6531C39.4263 39.6933 39.3822 39.758 39.3416 39.8436L37.3167 44.4469L35.0853 40.1143C34.9707 39.8925 34.8878 39.751 34.8366 39.6863C34.7855 39.6234 34.7132 39.5902 34.6179 39.5902C34.5509 39.5902 34.4574 39.5937 34.3392 39.6007C34.221 39.6077 34.087 39.6112 33.9388 39.6112C33.8365 39.6112 33.713 39.6077 33.5684 39.6007C33.422 39.5937 33.2862 39.5902 33.1574 39.5902C33.1363 39.5902 33.1274 39.6095 33.1274 39.6514C33.1274 39.6933 33.138 39.7125 33.1574 39.7125C33.5243 39.7125 33.8242 39.9222 34.0605 40.3362L33.9706 44.6617C33.9635 45.0164 33.8841 45.2889 33.7325 45.4758C33.5808 45.6645 33.3656 45.7571 33.0869 45.7571C33.0675 45.7571 33.0569 45.7763 33.0569 45.8183C33.0569 45.8602 33.0675 45.8794 33.0869 45.8794C33.235 45.8794 33.3938 45.8759 33.5596 45.8689C33.7254 45.8619 33.9106 45.8584 34.1134 45.8584C34.3163 45.8584 34.4856 45.8619 34.6408 45.8689C34.7961 45.8759 34.9495 45.8794 35.0977 45.8794C35.1171 45.8794 35.1277 45.8602 35.1277 45.8183C35.1277 45.7763 35.1171 45.7571 35.0977 45.7571C34.8067 45.7571 34.5879 45.6628 34.4433 45.4758C34.2969 45.2889 34.2281 45.0164 34.2352 44.6617L34.3233 40.8376L36.8651 45.8078C36.8792 45.834 36.9092 45.848 36.9568 45.848C37.0044 45.848 37.0309 45.834 37.038 45.8078L39.2058 40.7747L39.4051 45.0618C39.4263 45.3501 39.3874 45.5387 39.294 45.6243C39.1987 45.7117 38.9888 45.7554 38.6643 45.7554C38.6501 45.7554 38.6431 45.7746 38.6431 45.8165C38.6431 45.8584 38.6501 45.8776 38.6643 45.8776C38.8336 45.8776 39.0206 45.8742 39.2287 45.8672C39.4351 45.8602 39.6573 45.8567 39.8937 45.8567C40.13 45.8567 40.3576 45.8602 40.5745 45.8672C40.7915 45.8742 40.9873 45.8776 41.1637 45.8776C41.1778 45.8776 41.1848 45.8584 41.1848 45.8165C41.1848 45.7746 41.1778 45.7554 41.1637 45.7554L41.1601 45.7606Z" fill="#070707" style="fill:#070707;fill:color(display-p3 0.0275 0.0275 0.0275);fill-opacity:1;"/>
<path d="M49.1541 44.1307C49.1206 44.1237 49.0994 44.1307 49.0924 44.1516C48.9848 44.5936 48.7643 44.95 48.4327 45.2173C48.1011 45.4863 47.6954 45.6191 47.2138 45.6191H46.6035C46.4201 45.6191 46.2825 45.6051 46.1873 45.5789C46.092 45.5527 46.0285 45.4951 45.995 45.4077C45.9615 45.3204 45.9438 45.1928 45.9438 45.0251V40.4166C45.9438 40.2227 45.9632 40.0742 46.0003 39.9746C46.0373 39.8733 46.1114 39.8051 46.2243 39.7684C46.3354 39.7317 46.4995 39.7125 46.7164 39.7125C46.7358 39.7125 46.7464 39.6933 46.7464 39.6514C46.7464 39.6095 46.7358 39.5902 46.7164 39.5902C46.5541 39.5902 46.3654 39.5955 46.152 39.606C45.9385 39.6164 45.7075 39.6217 45.457 39.6217C45.2206 39.6217 44.9931 39.6164 44.7761 39.606C44.5592 39.5955 44.3705 39.5902 44.2082 39.5902C44.1941 39.5902 44.187 39.6095 44.187 39.6514C44.187 39.6933 44.1941 39.7125 44.2082 39.7125C44.4251 39.7125 44.5892 39.7317 44.7003 39.7684C44.8114 39.8051 44.8873 39.8733 44.9243 39.9693C44.9614 40.0672 44.9808 40.2122 44.9808 40.4061V45.0636C44.9808 45.2575 44.9614 45.406 44.9243 45.5055C44.8873 45.6069 44.8132 45.6733 44.7003 45.7064C44.5892 45.7396 44.4251 45.7571 44.2082 45.7571C44.1941 45.7571 44.187 45.7763 44.187 45.8183C44.187 45.8602 44.1941 45.8794 44.2082 45.8794H48.9618C49.0641 45.8794 49.1135 45.8287 49.1135 45.7292C49.1135 45.4811 49.1241 45.2103 49.1435 44.9186C49.1647 44.6268 49.1841 44.377 49.2052 44.1691C49.2052 44.1499 49.1876 44.1359 49.1541 44.1289V44.1307Z" fill="#070707" style="fill:#070707;fill:color(display-p3 0.0275 0.0275 0.0275);fill-opacity:1;"/>
<path d="M54.4616 44.3019C54.4245 44.2949 54.4016 44.3019 54.3963 44.3211C54.2746 44.7508 54.0718 45.074 53.786 45.2924C53.502 45.5108 53.1299 45.6191 52.6695 45.6191H52.1721C52.0239 45.6191 51.9075 45.5999 51.8263 45.5632C51.7452 45.5265 51.6852 45.4619 51.6482 45.3728C51.6112 45.2819 51.5917 45.1666 51.5917 45.0251V42.7418H52.5566C52.9358 42.7418 53.2198 42.8152 53.4103 42.9637C53.599 43.1104 53.6943 43.3253 53.6943 43.6083C53.6943 43.6223 53.7155 43.6275 53.756 43.6275C53.7966 43.6275 53.8178 43.6205 53.8178 43.6083C53.8178 43.4214 53.8125 43.2484 53.8019 43.0895C53.7913 42.9305 53.786 42.7733 53.786 42.6108C53.786 42.4833 53.786 42.3592 53.7913 42.2387C53.7948 42.1181 53.7966 41.9504 53.7966 41.7355C53.7966 41.7146 53.7772 41.7058 53.7402 41.7058C53.7031 41.7058 53.6837 41.7163 53.6837 41.7355C53.6837 41.9766 53.592 42.1618 53.4103 42.2893C53.2269 42.4169 52.9464 42.4798 52.5672 42.4798H51.5917V40.427C51.5917 40.2855 51.6129 40.1737 51.6535 40.0899C51.6941 40.006 51.7628 39.9466 51.8616 39.9082C51.9604 39.8715 52.0927 39.8523 52.262 39.8523H52.6783C53.0646 39.8523 53.375 39.9466 53.6132 40.1336C53.8495 40.3222 54.0065 40.607 54.0806 40.9878C54.0947 41.007 54.1176 41.0158 54.1511 41.0123C54.1847 41.0088 54.2023 41.0001 54.2023 40.9878L54.1829 39.6793C54.1829 39.6182 54.1494 39.5885 54.0806 39.5885H49.8543C49.8332 39.5885 49.8243 39.6077 49.8243 39.6496C49.8243 39.6916 49.8349 39.7108 49.8543 39.7108C50.0783 39.7108 50.2441 39.73 50.3517 39.7667C50.4593 39.8034 50.5334 39.8715 50.5705 39.9676C50.6075 40.0654 50.6269 40.2104 50.6269 40.4043V45.0618C50.6269 45.2557 50.6075 45.4042 50.5705 45.5038C50.5334 45.6051 50.4611 45.6715 50.3517 45.7047C50.2424 45.7379 50.0783 45.7554 49.8543 45.7554C49.8332 45.7554 49.8243 45.7746 49.8243 45.8165C49.8243 45.8584 49.8349 45.8776 49.8543 45.8776H54.2623C54.3646 45.8776 54.414 45.827 54.414 45.7274C54.414 45.5055 54.4245 45.2645 54.4439 45.0024C54.4633 44.7404 54.488 44.5167 54.5145 44.3281C54.5145 44.3141 54.4951 44.3054 54.4581 44.2984L54.4616 44.3019Z" fill="#070707" style="fill:#070707;fill:color(display-p3 0.0275 0.0275 0.0275);fill-opacity:1;"/>
<path d="M61.9334 43.3952C61.5277 43.4144 61.1379 43.4231 60.7657 43.4196C60.3935 43.4161 59.9808 43.4004 59.5257 43.3742C59.4922 43.3742 59.4746 43.4004 59.4746 43.4546C59.4746 43.5087 59.494 43.5349 59.5363 43.5349C59.8679 43.5349 60.106 43.5577 60.2524 43.6048C60.3988 43.652 60.4906 43.7498 60.5311 43.9018C60.5717 44.052 60.5929 44.2896 60.5929 44.6111C60.5929 44.9535 60.5541 45.212 60.4764 45.385C60.3988 45.5597 60.2754 45.6767 60.106 45.7379C59.9367 45.799 59.7092 45.8287 59.4252 45.8287C58.8837 45.8287 58.4004 45.6855 57.977 45.4007C57.5537 45.116 57.2186 44.7159 56.9716 44.204C56.7247 43.6904 56.6012 43.0999 56.6012 42.4291C56.6012 41.6115 56.797 40.9564 57.1903 40.4672C57.5837 39.9781 58.1587 39.7335 58.9172 39.7335C59.4657 39.7335 59.9438 39.875 60.3495 40.1563C60.7551 40.4375 61.0603 40.8306 61.2631 41.3337C61.2773 41.3599 61.3002 41.3687 61.3337 41.3582C61.3672 41.3477 61.3848 41.3372 61.3848 41.3233L61.2631 40.0148C61.2561 39.9484 61.2455 39.8995 61.2332 39.8698C61.219 39.8401 61.182 39.8104 61.122 39.7842C60.9192 39.6828 60.6564 39.6077 60.3353 39.557C60.0143 39.5064 59.7003 39.4819 59.3952 39.4819C58.8396 39.4819 58.328 39.5623 57.8606 39.723C57.3932 39.8837 56.9857 40.1108 56.6365 40.4026C56.2872 40.6943 56.0174 41.0437 55.8233 41.449C55.6311 41.8543 55.5341 42.3068 55.5341 42.8029C55.5341 43.4004 55.6787 43.9402 55.9662 44.4224C56.2537 44.9046 56.67 45.2889 57.215 45.5737C57.7601 45.8584 58.4145 46.0017 59.18 46.0017C59.5451 46.0017 59.9261 45.9755 60.323 45.9213C60.7199 45.8672 61.1009 45.8008 61.466 45.7204C61.5136 45.7064 61.5454 45.6942 61.563 45.6802C61.5806 45.6663 61.5877 45.6401 61.5877 45.5999C61.5877 45.5457 61.5824 45.4951 61.5718 45.4444C61.5612 45.3937 61.5507 45.3151 61.5365 45.2086C61.5224 45.102 61.5171 44.936 61.5171 44.7159C61.5171 44.3613 61.5242 44.0992 61.5365 43.9315C61.5507 43.7638 61.5877 43.6555 61.6477 43.6048C61.7076 43.5542 61.8029 43.5332 61.9316 43.5402C61.9652 43.5402 61.9828 43.5175 61.9828 43.4703C61.9828 43.4231 61.9652 43.4004 61.9316 43.4004L61.9334 43.3952Z" fill="#070707" style="fill:#070707;fill:color(display-p3 0.0275 0.0275 0.0275);fill-opacity:1;"/>
<path d="M69.5922 45.7606C69.4705 45.7606 69.3558 45.7239 69.2465 45.6505C69.1389 45.5772 69.0225 45.4479 68.9008 45.2627C68.779 45.0775 68.6397 44.826 68.4845 44.5028L65.9956 39.5326C65.9886 39.5116 65.9621 39.5029 65.9145 39.5029C65.8669 39.5029 65.8369 39.5134 65.8228 39.5326L63.6391 44.4119C63.4839 44.7666 63.341 45.0443 63.2122 45.2417C63.0835 45.4392 62.953 45.5754 62.8207 45.6488C62.6884 45.7222 62.5314 45.7589 62.3479 45.7589C62.3215 45.7589 62.3074 45.7781 62.3074 45.82C62.3074 45.8619 62.3215 45.8811 62.3479 45.8811C62.572 45.8811 62.7589 45.8742 62.9124 45.8619C63.0658 45.8497 63.2687 45.841 63.5262 45.841C63.7837 45.841 63.9972 45.848 64.1665 45.8619C64.3358 45.8759 64.5228 45.8811 64.7257 45.8811C64.7592 45.8811 64.7768 45.8619 64.7768 45.82C64.7768 45.7781 64.7592 45.7589 64.7257 45.7589C64.3253 45.7589 64.043 45.6523 63.8772 45.4374C63.7114 45.2225 63.7167 44.9116 63.8931 44.501L64.6727 42.761H66.516L67.6096 44.964C67.7719 45.2802 67.823 45.4898 67.7613 45.5981C67.6996 45.7064 67.5179 45.7589 67.2127 45.7589C67.1863 45.7589 67.1722 45.7781 67.1722 45.82C67.1722 45.8619 67.1863 45.8811 67.2127 45.8811C67.4156 45.8811 67.6008 45.8742 67.7666 45.8619C67.9324 45.848 68.1264 45.841 68.3504 45.841C68.5462 45.841 68.7508 45.848 68.9643 45.8619C69.1777 45.8759 69.3858 45.8811 69.5887 45.8811C69.6151 45.8811 69.6292 45.8619 69.6292 45.82C69.6292 45.7781 69.6151 45.7589 69.5887 45.7589L69.5922 45.7606ZM64.7909 42.5007L65.5476 40.8114L66.3872 42.5007H64.7909Z" fill="#070707" style="fill:#070707;fill:color(display-p3 0.0275 0.0275 0.0275);fill-opacity:1;"/>
<path d="M74.9137 44.1307C74.8802 44.1237 74.8591 44.1307 74.852 44.1516C74.7426 44.5936 74.5239 44.95 74.1923 45.2173C73.8607 45.4863 73.4532 45.6191 72.9735 45.6191H72.3632C72.1797 45.6191 72.0421 45.6051 71.9469 45.5789C71.8517 45.5527 71.7881 45.4951 71.7546 45.4077C71.7211 45.3204 71.7035 45.1928 71.7035 45.0251V40.4166C71.7035 40.2227 71.7211 40.0742 71.7599 39.9746C71.797 39.8733 71.8711 39.8051 71.9839 39.7684C72.0951 39.7317 72.2591 39.7125 72.4761 39.7125C72.4955 39.7125 72.506 39.6933 72.506 39.6514C72.506 39.6095 72.4955 39.5902 72.4761 39.5902C72.3138 39.5902 72.125 39.5955 71.9116 39.606C71.6982 39.6164 71.4654 39.6217 71.2167 39.6217C70.9803 39.6217 70.7528 39.6164 70.5358 39.606C70.3188 39.5955 70.1301 39.5902 69.9661 39.5902C69.9519 39.5902 69.9467 39.6095 69.9467 39.6514C69.9467 39.6933 69.9537 39.7125 69.9661 39.7125C70.183 39.7125 70.3471 39.7317 70.4582 39.7684C70.5693 39.8051 70.6452 39.8733 70.6822 39.9693C70.7192 40.0672 70.7386 40.2122 70.7386 40.4061V45.0636C70.7386 45.2575 70.7192 45.406 70.6822 45.5055C70.6452 45.6069 70.5711 45.6733 70.4582 45.7064C70.3471 45.7396 70.1813 45.7571 69.9661 45.7571C69.9519 45.7571 69.9467 45.7763 69.9467 45.8183C69.9467 45.8602 69.9537 45.8794 69.9661 45.8794H74.7197C74.822 45.8794 74.8714 45.8287 74.8714 45.7292C74.8714 45.4811 74.882 45.2103 74.9014 44.9186C74.9208 44.6268 74.942 44.377 74.9631 44.1691C74.9631 44.1499 74.9455 44.1359 74.912 44.1289L74.9137 44.1307Z" fill="#070707" style="fill:#070707;fill:color(display-p3 0.0275 0.0275 0.0275);fill-opacity:1;"/>
<path d="M76.2138 44.9343C76.0303 44.9343 75.8875 44.9797 75.7816 45.0705C75.6758 45.1614 75.6246 45.2907 75.6246 45.4584C75.6246 45.6051 75.6687 45.7274 75.7569 45.82C75.8451 45.9143 75.9704 45.9615 76.1326 45.9615C76.2032 45.9615 76.2632 45.9475 76.3161 45.9283C76.3549 46.0226 76.376 46.1642 76.376 46.3546C76.376 46.5887 76.3478 46.8123 76.2896 47.0237C76.2314 47.2351 76.1115 47.4552 75.9298 47.6823C75.9157 47.7085 75.9192 47.7329 75.9404 47.7522C75.9598 47.7731 75.9845 47.7731 76.0109 47.7522C76.2949 47.4639 76.5207 47.1669 76.6865 46.8612C76.8523 46.5555 76.9352 46.2288 76.9352 45.8811C76.9352 45.5597 76.8717 45.3204 76.7465 45.1666C76.6212 45.0129 76.4431 44.936 76.2138 44.936V44.9343Z" fill="#070707" style="fill:#070707;fill:color(display-p3 0.0275 0.0275 0.0275);fill-opacity:1;"/>
<path d="M84.0402 39.7283C83.7191 39.6182 83.3505 39.5623 82.9377 39.5623C82.6943 39.5623 82.4421 39.5728 82.181 39.592C81.92 39.6112 81.7083 39.6217 81.546 39.6217C81.3097 39.6217 81.0839 39.6165 80.8705 39.606C80.657 39.5955 80.4665 39.5902 80.2972 39.5902C80.2778 39.5902 80.2672 39.6095 80.2672 39.6514C80.2672 39.6933 80.2778 39.7125 80.2972 39.7125C80.5212 39.7125 80.687 39.7318 80.7946 39.7684C80.9022 39.8051 80.9763 39.8733 81.0133 39.9693C81.0504 40.0672 81.0698 40.2122 81.0698 40.4061V45.0636C81.0698 45.2575 81.0504 45.406 81.0133 45.5055C80.9763 45.6069 80.904 45.6733 80.7946 45.7065C80.6852 45.7396 80.5212 45.7571 80.2972 45.7571C80.2778 45.7571 80.2672 45.7763 80.2672 45.8183C80.2672 45.8602 80.2778 45.8794 80.2972 45.8794C80.4665 45.8794 80.6588 45.8759 80.8758 45.8689C81.0927 45.8619 81.3185 45.8584 81.5566 45.8584C81.8547 45.8584 82.1299 45.8619 82.3839 45.8689C82.6379 45.8759 82.8725 45.8794 83.0894 45.8794C83.1106 45.8794 83.1194 45.8602 83.1194 45.8183C83.1194 45.7763 83.1088 45.7571 83.0894 45.7571C82.7843 45.7571 82.5567 45.7361 82.4033 45.696C82.2516 45.6558 82.151 45.5842 82.1034 45.4793C82.0558 45.3745 82.0329 45.2225 82.0329 45.0216V40.4236C82.0329 40.2296 82.0487 40.0846 82.084 39.9903C82.1175 39.896 82.1793 39.8348 82.2675 39.8034C82.3556 39.7737 82.4774 39.758 82.6326 39.758C82.9307 39.758 83.1829 39.8226 83.3893 39.9536C83.5957 40.0846 83.7562 40.2733 83.8726 40.5214C83.9872 40.7695 84.0454 41.0717 84.0454 41.4263C84.0454 41.8019 83.9855 42.1146 83.8673 42.3627C83.7491 42.6108 83.5939 42.796 83.4052 42.9165C83.2147 43.0371 83.0083 43.0982 82.786 43.0982C82.7384 43.0982 82.6802 43.0947 82.6132 43.0877C82.5461 43.0807 82.4844 43.0702 82.4297 43.058C82.4033 43.051 82.3856 43.0702 82.3786 43.1139C82.3715 43.1576 82.3786 43.1821 82.3997 43.189C82.4809 43.2083 82.5638 43.2222 82.6484 43.2292C82.7331 43.2362 82.8125 43.2397 82.8866 43.2397C83.1512 43.2397 83.4157 43.1978 83.6786 43.1139C83.9414 43.0301 84.1848 42.906 84.4053 42.7418C84.6258 42.5776 84.8004 42.368 84.9291 42.1129C85.0579 41.8578 85.1179 41.5556 85.1126 41.208C85.0985 40.8131 84.9979 40.4934 84.8074 40.2524C84.6169 40.0113 84.3612 39.8348 84.0402 39.7248V39.7283Z" fill="#070707" style="fill:#070707;fill:color(display-p3 0.0275 0.0275 0.0275);fill-opacity:1;"/>
<path d="M90.8205 44.1307C90.787 44.1237 90.7658 44.1307 90.7587 44.1516C90.6494 44.5936 90.4307 44.95 90.099 45.2173C89.7674 45.4863 89.36 45.6191 88.8802 45.6191H88.2699C88.0865 45.6191 87.9489 45.6051 87.8536 45.5789C87.7584 45.5527 87.6949 45.4951 87.6614 45.4077C87.6279 45.3204 87.6102 45.1928 87.6102 45.0251V40.4166C87.6102 40.2227 87.6279 40.0742 87.6667 39.9746C87.7037 39.8733 87.7778 39.8051 87.8907 39.7684C88.0018 39.7317 88.1658 39.7125 88.3828 39.7125C88.4022 39.7125 88.4128 39.6933 88.4128 39.6514C88.4128 39.6095 88.4022 39.5902 88.3828 39.5902C88.2205 39.5902 88.0318 39.5955 87.8184 39.606C87.6049 39.6164 87.3721 39.6217 87.1234 39.6217C86.887 39.6217 86.6595 39.6164 86.4425 39.606C86.2256 39.5955 86.0368 39.5902 85.8728 39.5902C85.8587 39.5902 85.8534 39.6095 85.8534 39.6514C85.8534 39.6933 85.8604 39.7125 85.8728 39.7125C86.0898 39.7125 86.2538 39.7317 86.3649 39.7684C86.476 39.8051 86.5519 39.8733 86.5889 39.9693C86.626 40.0672 86.6454 40.2122 86.6454 40.4061V45.0636C86.6454 45.2575 86.626 45.406 86.5889 45.5055C86.5519 45.6069 86.4778 45.6733 86.3649 45.7064C86.2538 45.7396 86.088 45.7571 85.8728 45.7571C85.8587 45.7571 85.8534 45.7763 85.8534 45.8183C85.8534 45.8602 85.8604 45.8794 85.8728 45.8794H90.6264C90.7288 45.8794 90.7781 45.8287 90.7781 45.7292C90.7781 45.4811 90.7887 45.2103 90.8081 44.9186C90.8275 44.6268 90.8487 44.377 90.8699 44.1691C90.8699 44.1499 90.8522 44.1359 90.8187 44.1289L90.8205 44.1307Z" fill="#070707" style="fill:#070707;fill:color(display-p3 0.0275 0.0275 0.0275);fill-opacity:1;"/>
<path d="M96.3678 44.1307C96.3343 44.1237 96.3132 44.1307 96.3061 44.1516C96.1967 44.5936 95.978 44.95 95.6464 45.2173C95.3148 45.4863 94.9074 45.6191 94.4276 45.6191H93.8173C93.6338 45.6191 93.4963 45.6051 93.401 45.5789C93.3058 45.5527 93.2422 45.4951 93.2087 45.4077C93.1752 45.3204 93.1576 45.1928 93.1576 45.0251V40.4166C93.1576 40.2227 93.1752 40.0742 93.214 39.9746C93.2511 39.8733 93.3251 39.8051 93.438 39.7684C93.5492 39.7317 93.7132 39.7125 93.9302 39.7125C93.9496 39.7125 93.9601 39.6933 93.9601 39.6514C93.9601 39.6095 93.9496 39.5902 93.9302 39.5902C93.7679 39.5902 93.5792 39.5955 93.3657 39.606C93.1523 39.6164 92.9195 39.6217 92.6708 39.6217C92.4344 39.6217 92.2069 39.6164 91.9899 39.606C91.7729 39.5955 91.5842 39.5902 91.4202 39.5902C91.406 39.5902 91.4008 39.6095 91.4008 39.6514C91.4008 39.6933 91.4078 39.7125 91.4202 39.7125C91.6371 39.7125 91.8012 39.7317 91.9123 39.7684C92.0234 39.8051 92.0993 39.8733 92.1363 39.9693C92.1733 40.0672 92.1927 40.2122 92.1927 40.4061V45.0636C92.1927 45.2575 92.1733 45.406 92.1363 45.5055C92.0993 45.6069 92.0252 45.6733 91.9123 45.7064C91.8012 45.7396 91.6354 45.7571 91.4202 45.7571C91.406 45.7571 91.4008 45.7763 91.4008 45.8183C91.4008 45.8602 91.4078 45.8794 91.4202 45.8794H96.1738C96.2761 45.8794 96.3255 45.8287 96.3255 45.7292C96.3255 45.4811 96.3361 45.2103 96.3555 44.9186C96.3749 44.6268 96.3961 44.377 96.4172 44.1691C96.4172 44.1499 96.3996 44.1359 96.3661 44.1289L96.3678 44.1307Z" fill="#070707" style="fill:#070707;fill:color(display-p3 0.0275 0.0275 0.0275);fill-opacity:1;"/>
<path d="M102.949 44.0957C102.915 44.0852 102.891 44.0957 102.878 44.1202C102.635 44.7037 102.339 45.1317 101.989 45.4025C101.64 45.6733 101.243 45.8095 100.795 45.8095C100.43 45.8095 100.091 45.7222 99.7792 45.5475C99.467 45.3728 99.1971 45.1317 98.966 44.8225C98.735 44.5133 98.5568 44.1551 98.4281 43.7463C98.2993 43.3375 98.2358 42.8973 98.2358 42.4291C98.2358 41.8928 98.3258 41.4211 98.5057 41.0158C98.6856 40.6105 98.9431 40.2925 99.2783 40.0654C99.6134 39.8383 100.021 39.723 100.502 39.723C101.037 39.723 101.503 39.861 101.899 40.1353C102.296 40.4096 102.593 40.8096 102.788 41.332C102.802 41.3582 102.824 41.3669 102.854 41.3564C102.884 41.346 102.899 41.3355 102.899 41.3215L102.778 40.013C102.771 39.9396 102.758 39.8872 102.743 39.8575C102.725 39.8278 102.686 39.8016 102.626 39.7824C102.43 39.6811 102.166 39.606 101.834 39.5553C101.503 39.5046 101.19 39.4802 100.899 39.4802C100.412 39.4802 99.9432 39.5553 99.4917 39.7073C99.0419 39.8575 98.6397 40.0742 98.2869 40.3554C97.9342 40.6367 97.6555 40.9756 97.4491 41.3722C97.2427 41.7687 97.1387 42.2107 97.1387 42.6999C97.1387 43.0755 97.2075 43.4581 97.3468 43.8476C97.4862 44.2372 97.7013 44.5936 97.9924 44.9186C98.2834 45.2435 98.6627 45.5055 99.1301 45.7029C99.5975 45.9004 100.157 45.9999 100.806 45.9999C101.111 45.9999 101.421 45.972 101.741 45.9143C102.058 45.8567 102.374 45.7693 102.686 45.647C102.748 45.6208 102.787 45.5946 102.802 45.5719C102.82 45.5492 102.834 45.4968 102.848 45.4164L103 44.1289C103 44.1149 102.982 44.1045 102.949 44.094V44.0957Z" fill="#070707" style="fill:#070707;fill:color(display-p3 0.0275 0.0275 0.0275);fill-opacity:1;"/>
<path d="M52.7859 20.3402C52.6254 20.3402 52.4755 20.2913 52.3326 20.1952C52.1897 20.0991 52.0398 19.9296 51.8793 19.6868C51.7188 19.4457 51.5371 19.112 51.3325 18.691L48.0693 12.173C48.0605 12.1468 48.0252 12.1328 47.9635 12.1328C47.9017 12.1328 47.8612 12.1468 47.8435 12.173L44.979 18.5722C44.7744 19.0387 44.5874 19.402 44.4198 19.6606C44.2505 19.9209 44.0794 20.0973 43.9065 20.1952C43.7337 20.2913 43.5273 20.3402 43.2874 20.3402C43.2521 20.3402 43.2345 20.3664 43.2345 20.4188C43.2345 20.4712 43.2521 20.4974 43.2874 20.4974C43.5802 20.4974 43.8272 20.4887 44.0265 20.4712C44.2258 20.4537 44.4957 20.445 44.8326 20.445C45.1695 20.445 45.4499 20.4537 45.6722 20.4712C45.8944 20.4887 46.1378 20.4974 46.4042 20.4974C46.4483 20.4974 46.4712 20.4712 46.4712 20.4188C46.4712 20.3664 46.4483 20.3402 46.4042 20.3402C45.8803 20.3402 45.5099 20.1987 45.2912 19.9174C45.0742 19.6361 45.0795 19.2273 45.3106 18.691L46.3336 16.4077H48.7519L50.1859 19.2972C50.3994 19.7113 50.4664 19.9873 50.3853 20.1288C50.3059 20.2703 50.066 20.3402 49.6656 20.3402C49.6303 20.3402 49.6127 20.3664 49.6127 20.4188C49.6127 20.4712 49.6303 20.4974 49.6656 20.4974C49.932 20.4974 50.1736 20.4887 50.3923 20.4712C50.6093 20.4537 50.865 20.445 51.1578 20.445C51.4154 20.445 51.6835 20.4537 51.9639 20.4712C52.2444 20.4887 52.516 20.4974 52.7841 20.4974C52.8194 20.4974 52.8371 20.4712 52.8371 20.4188C52.8371 20.3664 52.8194 20.3402 52.7841 20.3402H52.7859ZM46.4889 16.0653L47.4819 13.8484L48.5826 16.0653H46.4889Z" fill="#070707" style="fill:#070707;fill:color(display-p3 0.0275 0.0275 0.0275);fill-opacity:1;"/>
<path d="M59.7003 18.2019C59.6562 18.1931 59.6298 18.2019 59.621 18.2281C59.4781 18.8081 59.1906 19.2745 58.7549 19.6274C58.3192 19.9786 57.7865 20.155 57.1568 20.155H56.3578C56.1179 20.155 55.9362 20.1375 55.811 20.1026C55.6858 20.0676 55.6029 19.9925 55.557 19.879C55.5111 19.7654 55.49 19.5977 55.49 19.3776V13.3348C55.49 13.0797 55.5147 12.8858 55.5623 12.7548C55.6117 12.622 55.7087 12.5329 55.8551 12.484C56.0015 12.4351 56.2167 12.4123 56.5007 12.4123C56.5271 12.4123 56.5412 12.3861 56.5412 12.3337C56.5412 12.2813 56.5271 12.2551 56.5007 12.2551C56.2872 12.2551 56.0403 12.2621 55.7616 12.2743C55.4829 12.2866 55.1778 12.2936 54.8497 12.2936C54.5392 12.2936 54.2411 12.2866 53.9572 12.2743C53.6732 12.2604 53.4245 12.2551 53.211 12.2551C53.1934 12.2551 53.1846 12.2813 53.1846 12.3337C53.1846 12.3861 53.1934 12.4123 53.211 12.4123C53.495 12.4123 53.7102 12.4368 53.8566 12.484C54.003 12.5329 54.1 12.6202 54.1494 12.7478C54.1988 12.8753 54.2217 13.0675 54.2217 13.3225V19.4317C54.2217 19.6868 54.197 19.8807 54.1494 20.0117C54.1 20.1445 54.003 20.2319 53.8566 20.2755C53.7102 20.3192 53.495 20.3419 53.211 20.3419C53.1934 20.3419 53.1846 20.3681 53.1846 20.4205C53.1846 20.473 53.1934 20.4992 53.211 20.4992H59.4463C59.5786 20.4992 59.6457 20.4328 59.6457 20.3017C59.6457 19.9768 59.6598 19.6222 59.6862 19.2396C59.7127 18.857 59.7391 18.5286 59.7656 18.256C59.7656 18.2298 59.7427 18.2123 59.6986 18.2036L59.7003 18.2019Z" fill="#070707" style="fill:#070707;fill:color(display-p3 0.0275 0.0275 0.0275);fill-opacity:1;"/>
<path d="M103 50.0809H0V50.8863H103V50.0809Z" fill="#070707" style="fill:#070707;fill:color(display-p3 0.0275 0.0275 0.0275);fill-opacity:1;"/>
<path d="M29.2733 57.9581H28.8835C28.8376 57.9581 28.8023 57.9476 28.7741 57.9249C28.7459 57.9022 28.7247 57.8742 28.7124 57.8393L28.3631 56.9466H26.6892L26.34 57.8393C26.3276 57.8707 26.3065 57.8969 26.2782 57.9214C26.2482 57.9458 26.213 57.9581 26.1689 57.9581H25.7791L27.2713 54.2632H27.7846L29.2768 57.9581H29.2733ZM26.8286 56.5867H28.222L27.6364 55.0843C27.5976 54.9917 27.5606 54.8764 27.5235 54.7366C27.5041 54.8065 27.4865 54.8711 27.4671 54.9305C27.4477 54.9899 27.4318 55.0423 27.4142 55.086L26.8286 56.5867Z" fill="#070707" style="fill:#070707;fill:color(display-p3 0.0275 0.0275 0.0275);fill-opacity:1;"/>
<path d="M32.0973 54.2632V54.6842H30.8926V57.9581H30.3881V54.6842H29.1781V54.2632H32.0991H32.0973Z" fill="#070707" style="fill:#070707;fill:color(display-p3 0.0275 0.0275 0.0275);fill-opacity:1;"/>
<path d="M35.3252 54.2632V54.6842H34.1205V57.9581H33.616V54.6842H32.406V54.2632H35.327H35.3252Z" fill="#070707" style="fill:#070707;fill:color(display-p3 0.0275 0.0275 0.0275);fill-opacity:1;"/>
<path d="M39.2234 56.1132C39.2234 56.3893 39.1793 56.6443 39.0911 56.8749C39.0029 57.1055 38.8777 57.3047 38.7154 57.4724C38.5531 57.6384 38.3591 57.7676 38.1333 57.8602C37.9075 57.9528 37.6571 57.9982 37.3819 57.9982C37.1067 57.9982 36.858 57.9528 36.6323 57.8602C36.4065 57.7676 36.2125 57.6384 36.0519 57.4724C35.8914 57.3064 35.7662 57.1073 35.6762 56.8749C35.588 56.6443 35.5439 56.3893 35.5439 56.1132C35.5439 55.8372 35.588 55.5822 35.6762 55.3516C35.7644 55.121 35.8897 54.9218 36.0519 54.7541C36.2142 54.5864 36.4065 54.4571 36.6323 54.3628C36.858 54.2702 37.1085 54.223 37.3819 54.223C37.6553 54.223 37.9058 54.2702 38.1333 54.3628C38.3591 54.4554 38.5531 54.5864 38.7154 54.7541C38.8759 54.9218 39.0011 55.121 39.0911 55.3516C39.1793 55.5822 39.2234 55.8372 39.2234 56.1132ZM38.7048 56.1132C38.7048 55.8861 38.6731 55.6835 38.6113 55.5018C38.5496 55.3219 38.4596 55.1681 38.3468 55.0441C38.2321 54.9201 38.0928 54.824 37.9305 54.7558C37.7682 54.6895 37.5848 54.6545 37.3837 54.6545C37.1826 54.6545 37.0027 54.6877 36.8404 54.7558C36.6781 54.8222 36.5388 54.9183 36.4224 55.0441C36.3077 55.1681 36.2177 55.3219 36.156 55.5018C36.0943 55.6817 36.0625 55.8861 36.0625 56.1132C36.0625 56.3404 36.0943 56.543 36.156 56.7229C36.2177 56.9029 36.3077 57.0549 36.4224 57.1789C36.537 57.3029 36.6764 57.399 36.8404 57.4654C37.0027 57.5318 37.1844 57.565 37.3837 57.565C37.583 57.565 37.7664 57.5318 37.9305 57.4654C38.0928 57.399 38.2321 57.3047 38.3468 57.1789C38.4614 57.0549 38.5496 56.9029 38.6113 56.7229C38.6731 56.543 38.7048 56.3404 38.7048 56.1132Z" fill="#070707" style="fill:#070707;fill:color(display-p3 0.0275 0.0275 0.0275);fill-opacity:1;"/>
<path d="M40.6239 56.4172V57.9598H40.1212V54.2649H41.176C41.4124 54.2649 41.6152 54.2894 41.7881 54.3366C41.9609 54.3837 42.1021 54.4519 42.2132 54.541C42.3243 54.6301 42.4072 54.7384 42.4619 54.8642C42.5166 54.9899 42.543 55.1314 42.543 55.2887C42.543 55.4197 42.5219 55.542 42.4813 55.6555C42.439 55.7691 42.379 55.8704 42.2996 55.9613C42.2202 56.0521 42.125 56.129 42.0103 56.1919C41.8974 56.2548 41.7687 56.3037 41.624 56.3369C41.6858 56.3736 41.7422 56.426 41.7898 56.4941L42.8782 57.9616H42.4301C42.3384 57.9616 42.2696 57.9266 42.2273 57.8567L41.2589 56.536C41.2289 56.4941 41.1972 56.4644 41.1619 56.4469C41.1266 56.4295 41.0755 56.419 41.0049 56.419H40.6222L40.6239 56.4172ZM40.6239 56.0539H41.1531C41.3012 56.0539 41.43 56.0364 41.5429 56.0014C41.654 55.9665 41.7493 55.9158 41.8234 55.8512C41.8992 55.7866 41.9556 55.7097 41.9945 55.6206C42.0333 55.5315 42.0509 55.4319 42.0509 55.3236C42.0509 55.1035 41.9768 54.9375 41.8304 54.8257C41.684 54.7139 41.4653 54.658 41.176 54.658H40.6239V56.0521V56.0539Z" fill="#070707" style="fill:#070707;fill:color(display-p3 0.0275 0.0275 0.0275);fill-opacity:1;"/>
<path d="M43.9383 54.2807C43.9594 54.2911 43.9841 54.3138 44.0123 54.3488L46.1731 57.1335C46.1678 57.0881 46.1643 57.0461 46.1625 57.0025C46.1607 56.9605 46.1607 56.9204 46.1607 56.8802V54.2632H46.6035V57.9581H46.3477C46.3071 57.9581 46.2736 57.9511 46.2472 57.9371C46.2207 57.9231 46.1943 57.9004 46.1678 57.8672L44.0106 55.086C44.0141 55.1297 44.0159 55.1716 44.0176 55.2118C44.0194 55.252 44.0194 55.2904 44.0194 55.3254V57.9581H43.5767V54.2632H43.8377C43.8836 54.2632 43.9153 54.2684 43.9383 54.2807Z" fill="#070707" style="fill:#070707;fill:color(display-p3 0.0275 0.0275 0.0275);fill-opacity:1;"/>
<path d="M49.9689 54.2632V54.6702H48.1785V55.8966H49.6284V56.288H48.1785V57.5493H49.9689V57.9563H47.6705V54.2614H49.9689V54.2632Z" fill="#070707" style="fill:#070707;fill:color(display-p3 0.0275 0.0275 0.0275);fill-opacity:1;"/>
<path d="M52.2884 56.4888V57.9581H51.7857V56.4888L50.4187 54.2632H50.8614C50.9073 54.2632 50.9426 54.2737 50.969 54.2964C50.9955 54.3191 51.0184 54.347 51.0361 54.3785L51.8898 55.8145C51.9251 55.8739 51.9533 55.9316 51.9762 55.984C51.9991 56.0364 52.0203 56.0905 52.0397 56.1412C52.0591 56.0888 52.0803 56.0346 52.1014 55.9822C52.1244 55.9298 52.1526 55.8739 52.1879 55.8145L53.0398 54.3785C53.0557 54.3505 53.0769 54.3243 53.1033 54.2999C53.1298 54.2754 53.1651 54.2632 53.2092 54.2632H53.6572L52.2884 56.4888Z" fill="#070707" style="fill:#070707;fill:color(display-p3 0.0275 0.0275 0.0275);fill-opacity:1;"/>
<path d="M56.1919 54.8414C56.176 54.8676 56.1601 54.8869 56.1425 54.8991C56.1248 54.9113 56.1019 54.9183 56.0755 54.9183C56.0455 54.9183 56.012 54.9043 55.9731 54.8746C55.9343 54.8449 55.885 54.8135 55.825 54.7786C55.765 54.7436 55.6927 54.7104 55.608 54.6825C55.5234 54.6528 55.4211 54.6388 55.3029 54.6388C55.19 54.6388 55.0894 54.6545 55.003 54.6842C54.9166 54.7139 54.8443 54.7558 54.7861 54.8065C54.7279 54.8589 54.6838 54.9183 54.6538 54.9882C54.6238 55.0581 54.6097 55.1332 54.6097 55.2135C54.6097 55.3166 54.6344 55.4022 54.6855 55.4704C54.7367 55.5385 54.8037 55.5961 54.8884 55.6451C54.973 55.694 55.0683 55.7342 55.1741 55.7708C55.2799 55.8058 55.3893 55.8425 55.5022 55.8809C55.6133 55.9193 55.7227 55.9613 55.8303 56.0084C55.9379 56.0556 56.0331 56.115 56.116 56.1884C56.1989 56.2617 56.2677 56.3491 56.3189 56.4539C56.37 56.5587 56.3947 56.688 56.3947 56.84C56.3947 57.0007 56.3665 57.1527 56.3118 57.296C56.2554 57.4375 56.176 57.5615 56.0684 57.6663C55.9608 57.7711 55.8303 57.8533 55.6751 57.9144C55.5198 57.9738 55.3434 58.0052 55.1459 58.0052C54.9042 58.0052 54.6855 57.9616 54.4862 57.8742C54.2869 57.7869 54.1176 57.6698 53.9764 57.5231L54.1228 57.2855C54.137 57.2663 54.1528 57.2505 54.174 57.2383C54.1934 57.2261 54.2163 57.2191 54.241 57.2191C54.2781 57.2191 54.3186 57.2383 54.3663 57.2767C54.4139 57.3152 54.4721 57.3589 54.5426 57.4043C54.6132 57.4497 54.6979 57.4934 54.7984 57.5318C54.899 57.5702 55.0207 57.5895 55.1635 57.5895C55.2835 57.5895 55.3893 57.5737 55.4846 57.5405C55.5798 57.5073 55.6574 57.4619 55.7227 57.4025C55.7879 57.3431 55.8373 57.2715 55.8726 57.1894C55.9079 57.1073 55.9255 57.0147 55.9255 56.9134C55.9255 56.8016 55.9008 56.7107 55.8497 56.6391C55.7985 56.5675 55.7315 56.5081 55.6486 56.4592C55.5657 56.4102 55.4704 56.3701 55.3628 56.3369C55.257 56.3037 55.1477 56.2687 55.0348 56.2338C54.9236 56.1989 54.8143 56.1587 54.7067 56.1115C54.5991 56.0643 54.5056 56.0049 54.4209 55.9316C54.338 55.8582 54.271 55.7656 54.2199 55.6538C54.1687 55.542 54.144 55.4057 54.144 55.2432C54.144 55.1122 54.1687 54.9864 54.2199 54.8642C54.271 54.7419 54.3451 54.6336 54.4421 54.5392C54.5391 54.4449 54.6591 54.3698 54.8019 54.3121C54.9448 54.2562 55.1088 54.2265 55.2958 54.2265C55.504 54.2265 55.6945 54.2597 55.8656 54.3243C56.0367 54.389 56.1866 54.4851 56.3153 54.6073L56.1936 54.8449L56.1919 54.8414Z" fill="#070707" style="fill:#070707;fill:color(display-p3 0.0275 0.0275 0.0275);fill-opacity:1;"/>
<path d="M61.4271 57.9581H61.0373C60.9914 57.9581 60.9562 57.9476 60.9279 57.9249C60.8997 57.9022 60.8785 57.8742 60.8662 57.8393L60.5169 56.9466H58.843L58.4938 57.8393C58.4814 57.8707 58.4603 57.8969 58.432 57.9214C58.4021 57.9458 58.3668 57.9581 58.3227 57.9581H57.9329L59.4251 54.2632H59.9384L61.4306 57.9581H61.4271ZM58.9824 56.5867H60.3758L59.7902 55.0843C59.7514 54.9917 59.7144 54.8764 59.6773 54.7366C59.6579 54.8065 59.6403 54.8711 59.6209 54.9305C59.6015 54.9899 59.5856 55.0423 59.568 55.086L58.9824 56.5867Z" fill="#070707" style="fill:#070707;fill:color(display-p3 0.0275 0.0275 0.0275);fill-opacity:1;"/>
<path d="M64.251 54.2632V54.6842H63.0463V57.9581H62.5418V54.6842H61.3318V54.2632H64.2528H64.251Z" fill="#070707" style="fill:#070707;fill:color(display-p3 0.0275 0.0275 0.0275);fill-opacity:1;"/>
<path d="M66.6041 57.5388H68.218V57.9598H66.0996V54.2649H66.6041V57.5388Z" fill="#070707" style="fill:#070707;fill:color(display-p3 0.0275 0.0275 0.0275);fill-opacity:1;"/>
<path d="M72.0016 57.9581H71.6117C71.5659 57.9581 71.5306 57.9476 71.5024 57.9249C71.4742 57.9022 71.453 57.8742 71.4407 57.8393L71.0914 56.9466H69.4175L69.0682 57.8393C69.0559 57.8707 69.0347 57.8969 69.0065 57.9214C68.9765 57.9458 68.9412 57.9581 68.8971 57.9581H68.5073L69.9996 54.2632H70.5129L72.0051 57.9581H72.0016ZM69.5568 56.5867H70.9503L70.3647 55.0843C70.3259 54.9917 70.2888 54.8764 70.2518 54.7366C70.2324 54.8065 70.2148 54.8711 70.1954 54.9305C70.176 54.9899 70.1601 55.0423 70.1424 55.086L69.5568 56.5867Z" fill="#070707" style="fill:#070707;fill:color(display-p3 0.0275 0.0275 0.0275);fill-opacity:1;"/>
<path d="M71.9927 54.2632H72.4125C72.4583 54.2632 72.4954 54.2737 72.5236 54.2964C72.5536 54.3191 72.573 54.347 72.5836 54.382L73.3544 56.9501C73.3685 56.9972 73.3808 57.0461 73.3914 57.1003C73.402 57.1545 73.4144 57.2086 73.4232 57.268C73.4355 57.2104 73.4479 57.1527 73.4602 57.0985C73.4726 57.0444 73.4867 56.9955 73.5025 56.9501L74.3792 54.382C74.3898 54.3523 74.4092 54.3261 74.4409 54.3016C74.4709 54.2772 74.508 54.2649 74.5521 54.2649H74.6985C74.7443 54.2649 74.7814 54.2754 74.8096 54.2981C74.8378 54.3208 74.859 54.3488 74.8713 54.3837L75.7427 56.9518C75.7744 57.0409 75.8009 57.144 75.8256 57.2593C75.8362 57.2034 75.845 57.1475 75.8538 57.0968C75.8626 57.0444 75.8732 56.9972 75.8873 56.9518L76.6599 54.3837C76.6687 54.3523 76.6881 54.3261 76.7181 54.3016C76.7481 54.2772 76.7851 54.2649 76.8292 54.2649H77.2226L76.0584 57.9598H75.6051L74.6596 55.1419C74.6402 55.0895 74.6226 55.0266 74.6067 54.9567C74.5979 54.9917 74.5891 55.0249 74.582 55.0563C74.575 55.0878 74.5662 55.1175 74.5573 55.1419L73.6066 57.9598H73.1533L71.9891 54.2649L71.9927 54.2632Z" fill="#070707" style="fill:#070707;fill:color(display-p3 0.0275 0.0275 0.0275);fill-opacity:1;"/>
</g>
<defs>
<clipPath id="clip0_21_1229">
<rect width="103" height="58" fill="white" style="fill:white;fill-opacity:1;"/>
</clipPath>
</defs>
</svg>
